<?xml version="1.0" encoding="UTF-8"?>
<svg version="1.1" xmlns="http://www.w3.org/2000/svg" width="223" height="146">
<path d="M0 0 C73.59 0 147.18 0 223 0 C223 48.18 223 96.36 223 146 C149.41 146 75.82 146 0 146 C0 97.82 0 49.64 0 0 Z " fill="#FDFDFD" transform="translate(0,0)"/>
<path d="M0 0 C1.13824219 -0.01417969 2.27648437 -0.02835938 3.44921875 -0.04296875 C6.3125 0.1875 6.3125 0.1875 8.3125 2.1875 C7.35730469 2.28546875 6.40210938 2.3834375 5.41796875 2.484375 C-5.22296748 3.71503163 -14.94833118 5.57407494 -23.6875 12.1875 C-22.2164644 13.6585356 -20.72548899 13.58368247 -18.6875 13.9375 C-7.20601859 16.40172892 0.19446731 23.65122528 7.1484375 32.60546875 C10.46985003 36.56838154 14.24414742 40.00047544 18.3125 43.1875 C18.6425 43.1875 18.9725 43.1875 19.3125 43.1875 C17.6625 41.5375 16.0125 39.8875 14.3125 38.1875 C15.9625 38.1875 17.6125 38.1875 19.3125 38.1875 C19.3125 32.2475 19.3125 26.3075 19.3125 20.1875 C13.3725 20.1875 7.4325 20.1875 1.3125 20.1875 C0.9825 20.8475 0.6525 21.5075 0.3125 22.1875 C-0.98065061 21.23117001 -2.27196853 20.27236149 -3.5625 19.3125 C-4.28179687 18.77882813 -5.00109375 18.24515625 -5.7421875 17.6953125 C-7.6875 16.1875 -7.6875 16.1875 -9.6875 14.1875 C-4.44052481 14.13772208 0.8063101 14.1016029 6.0534668 14.07763672 C7.83506671 14.06763589 9.61665044 14.05403084 11.39819336 14.03662109 C13.97253433 14.01211043 16.54665657 14.00095752 19.12109375 13.9921875 C19.90584579 13.98186493 20.69059784 13.97154236 21.49913025 13.96090698 C28.67195022 13.95948148 36.46150223 14.37208703 41.96484375 19.4921875 C47.42522143 26.36118435 49.50368575 33.83591556 49.5625 42.4375 C49.583125 43.17613281 49.60375 43.91476563 49.625 44.67578125 C49.66201886 49.92320442 48.77386316 53.53361189 46.3125 58.1875 C43.69069911 60.07191939 42.57906076 60.1875 39.3125 60.1875 C39.065 59.094375 38.8175 58.00125 38.5625 56.875 C37.5942088 53.28556042 37.5942088 53.28556042 35.6875 51.25 C32.21125635 49.69483837 29.0000807 49.40462076 25.3125 50.1875 C22.08839007 52.58843293 20.61799966 54.13000118 19.5 58 C19.438125 58.721875 19.37625 59.44375 19.3125 60.1875 C14.51857077 59.76450624 11.47014309 57.67456642 8.3125 54.1875 C4.69741183 49.06064769 1.96543872 43.51422311 -0.75 37.875 C-4.49677526 30.30399677 -9.36061265 26.17283621 -16.6875 22.1875 C-17.6775 21.8575 -18.6675 21.5275 -19.6875 21.1875 C-19.6875 26.7975 -19.6875 32.4075 -19.6875 38.1875 C-20.6775 38.1875 -21.6675 38.1875 -22.6875 38.1875 C-22.6875 32.2475 -22.6875 26.3075 -22.6875 20.1875 C-26.0596875 20.620625 -26.0596875 20.620625 -29.5 21.0625 C-30.76457031 21.22492187 -32.02914062 21.38734375 -33.33203125 21.5546875 C-36.80449317 21.98318453 -36.80449317 21.98318453 -39.6875 24.1875 C-37.4684293 16.29747084 -30.79135924 10.70810486 -24.08984375 6.50390625 C-16.26917075 2.21843178 -8.92064736 0.05085888 0 0 Z " fill="#4E7948" transform="translate(74.6875,34.8125)"/>
<path d="M0 0 C0.77988281 0.350625 1.55976562 0.70125 2.36328125 1.0625 C13.46518857 6.58469224 23.61717111 16.8037159 29 28 C28.67 28.99 28.34 29.98 28 31 C27.62488281 30.48050781 27.24976562 29.96101563 26.86328125 29.42578125 C18.26561794 17.70957004 7.80894878 10.60298293 -6 6 C-9.03750536 5.77277902 -12.0798543 5.81483523 -15.125 5.8125 C-15.94226563 5.80025391 -16.75953125 5.78800781 -17.6015625 5.77539062 C-30.57966169 5.74458817 -41.60788326 10.01422478 -51.16015625 18.98046875 C-57.75425852 26.218581 -61.07639253 34.210595 -63.859375 43.421875 C-65 47 -65 47 -66.6171875 50.3984375 C-68.28418667 54.7401698 -68.45699027 58.27481197 -68.375 62.875 C-68.36847412 63.6685791 -68.36194824 64.4621582 -68.35522461 65.27978516 C-68.22291136 71.05528801 -67.30159495 75.66029972 -65 81 C-64.6437029 82.32738136 -64.30407865 83.65969218 -64 85 C-72.8707772 77.06710233 -76.48527995 64.76982165 -77.24609375 53.28515625 C-77.89955206 37.51071072 -72.97595674 24.86345585 -62.8125 12.8125 C-47.16617231 -3.93827435 -21.03632405 -10.16699922 0 0 Z " fill="#497644" transform="translate(92,27)"/>
<path d="M0 0 C0.83394287 0.00628418 1.66788574 0.01256836 2.52709961 0.01904297 C3.38231201 0.02403809 4.23752441 0.0290332 5.11865234 0.03417969 C12.45631857 0.23490822 18.17261175 1.89410735 24.58959961 5.51904297 C25.50483398 6.02306641 26.42006836 6.52708984 27.36303711 7.04638672 C33.82584656 10.77055698 39.18198811 14.68842003 43.83959961 20.58154297 C44.52538086 21.43876953 45.21116211 22.29599609 45.91772461 23.17919922 C47.58959961 25.51904297 47.58959961 25.51904297 48.58959961 28.51904297 C47.92959961 29.17904297 47.26959961 29.83904297 46.58959961 30.51904297 C46.29827148 29.97634766 46.00694336 29.43365234 45.70678711 28.87451172 C42.97400544 24.10503427 40.98115152 21.38958139 35.58959961 19.51904297 C30.75837662 18.50238638 26.04443811 18.3878479 21.12866211 18.42138672 C19.94281021 18.42350914 19.94281021 18.42350914 18.73300171 18.42567444 C16.22682795 18.43123793 13.72074603 18.44378353 11.21459961 18.45654297 C9.50756966 18.46156269 7.80053829 18.46612477 6.09350586 18.47021484 C1.92550213 18.48119538 -2.2424336 18.49843458 -6.41040039 18.51904297 C-3.77040039 20.49904297 -1.13040039 22.47904297 1.58959961 24.51904297 C1.91959961 24.18904297 2.24959961 23.85904297 2.58959961 23.51904297 C3.93227374 23.43272423 5.27934283 23.41197824 6.62475586 23.42138672 C7.71735718 23.42513306 7.71735718 23.42513306 8.83203125 23.42895508 C9.76265381 23.43805908 10.69327637 23.44716309 11.65209961 23.45654297 C16.07616211 23.48748047 16.07616211 23.48748047 20.58959961 23.51904297 C20.58959961 29.45904297 20.58959961 35.39904297 20.58959961 41.51904297 C18.60959961 42.01404297 18.60959961 42.01404297 16.58959961 42.51904297 C18.89959961 44.16904297 21.20959961 45.81904297 23.58959961 47.51904297 C22.59959961 48.01404297 22.59959961 48.01404297 21.58959961 48.51904297 C14.41660913 43.43274063 8.41934548 38.11724049 3.27709961 30.95654297 C-0.46309687 25.99782095 -4.94014377 23.31373019 -10.41040039 20.51904297 C-11.07168945 20.15939453 -11.73297852 19.79974609 -12.41430664 19.42919922 C-14.64699622 18.41116268 -16.75933118 17.88838075 -19.16040039 17.39404297 C-19.95961914 17.22646484 -20.75883789 17.05888672 -21.58227539 16.88623047 C-22.18555664 16.76505859 -22.78883789 16.64388672 -23.41040039 16.51904297 C-15.54454333 7.38449929 -3.85744151 5.59220307 7.58959961 4.51904297 C1.97959961 4.18904297 -3.63040039 3.85904297 -9.41040039 3.51904297 C-5.80620155 -0.08515587 -4.77096748 0.10068838 0 0 Z " fill="#F6F8F6" transform="translate(73.410400390625,31.48095703125)"/>
<path d="M0 0 C0.66 0 1.32 0 2 0 C2.07476563 0.65484375 2.14953125 1.3096875 2.2265625 1.984375 C4.09818375 14.97562839 10.1546905 25.96605131 20.60546875 34.00390625 C26.44749749 37.95077757 32.12628823 40.47511514 39 42 C39.804375 42.18304688 40.60875 42.36609375 41.4375 42.5546875 C55.21825277 44.94951344 68.28628923 41.01568773 79.63671875 33.1796875 C85.05367942 29.05016591 89.27065934 24.70013044 93 19 C93.495 19.99 93.495 19.99 94 21 C83.99061874 35.71793635 73.25754525 47.05376593 55.1875 51.3125 C41.6415287 53.54511651 27.98040413 52.41026424 16.3125 44.78125 C8.05925401 38.42401998 1.59673005 29.29523968 -0.65234375 19.01953125 C-1.00641725 15.94426367 -1.13291562 12.97000726 -1.125 9.875 C-1.12757812 8.86179687 -1.13015625 7.84859375 -1.1328125 6.8046875 C-1.01721552 4.36355131 -0.70201748 2.32891512 0 0 Z " fill="#4D7948" transform="translate(26,80)"/>
<path d="M0 0 C0.04898438 0.69867188 0.09796875 1.39734375 0.1484375 2.1171875 C0.22320312 3.02726562 0.29796875 3.93734375 0.375 4.875 C0.44460937 5.77992187 0.51421875 6.68484375 0.5859375 7.6171875 C0.79568132 10.17941903 0.79568132 10.17941903 3 12 C5.46336983 12.50854771 7.89195393 12.93271644 10.375 13.3125 C19.26467231 14.8111536 26.97356743 17.93052367 35 22 C29.83132665 18.37841255 24.90372107 15.26099956 19 13 C19 12.67 19 12.34 19 12 C24.61 12 30.22 12 36 12 C36.556875 13.32 37.11375 14.64 37.6875 16 C40.92854352 23.26952367 44.88264484 28.8591738 50 35 C41.09 35 32.18 35 23 35 C22.34 32.36 21.68 29.72 21 27 C19.06077138 24.38625708 18.16330864 24.05443621 15 23 C9.3195157 22.53655941 9.3195157 22.53655941 4.125 24.5 C1.23623047 27.89855238 0.80009493 30.63584584 0 35 C-0.99 35 -1.98 35 -3 35 C-6.6861094 24.79737578 -9.5416702 14.41912575 -5 4 C-4.67 3.01 -4.34 2.02 -4 1 C-2 0 -2 0 0 0 Z " fill="#4B7846" transform="translate(37,61)"/>
<path d="M0 0 C1.57554035 2.88628401 2.46276373 5.53342384 3.125 8.75 C3.29257812 9.54921875 3.46015625 10.3484375 3.6328125 11.171875 C3.81457031 12.07679687 3.81457031 12.07679687 4 13 C4.99 13 5.98 13 7 13 C6.896875 12.13375 6.79375 11.2675 6.6875 10.375 C7.11873973 5.71761095 8.76491727 4.31210851 12 1 C15.19342379 -0.59671189 18.52545631 -0.37418163 22 0 C25.59247986 1.59665772 28.37396825 3.3653408 30 7 C29.79362518 11.78251221 28.65006424 15.17424273 25.6875 18.9375 C23.12987296 20.90033005 20.98896484 21.883519 18 23 C25.93278866 29.67629495 34.08584188 35.1661164 44.765625 35.09765625 C45.65507813 35.09443359 46.54453125 35.09121094 47.4609375 35.08789062 C48.38132813 35.07951172 49.30171875 35.07113281 50.25 35.0625 C51.18585938 35.05798828 52.12171875 35.05347656 53.0859375 35.04882812 C55.39069041 35.03706918 57.69531227 35.02063426 60 35 C57.47519307 37.52480693 55.86176966 37.55738633 52.375 38.125 C50.87066406 38.37636719 50.87066406 38.37636719 49.3359375 38.6328125 C48.56507812 38.75398438 47.79421875 38.87515625 47 39 C48.65 39.33 50.3 39.66 52 40 C52 40.33 52 40.66 52 41 C36.79027193 41.72812528 23.89139146 38.33572234 12.25 28.3125 C6.16409842 22.54509681 1.65950073 15.99110647 -1 8 C-0.97104201 5.23451242 -0.46488118 2.74279896 0 0 Z " fill="#E9ECE8" transform="translate(30,83)"/>
<path d="M0 0 C2.22855574 -0.0814222 4.45797655 -0.13938079 6.6875 -0.1875 C8.54955078 -0.23970703 8.54955078 -0.23970703 10.44921875 -0.29296875 C14.30232916 0.02494465 16.03033252 0.56361788 19 3 C20.58203125 5.48828125 20.58203125 5.48828125 21.8125 8.3125 C22.23144531 9.23675781 22.65039062 10.16101563 23.08203125 11.11328125 C24.07329631 14.2304935 24.16805107 16.74941223 24 20 C20.74870364 19.94805091 17.50004935 19.852963 14.25 19.75 C13.32960938 19.73582031 12.40921875 19.72164062 11.4609375 19.70703125 C4.78122106 19.46501254 4.78122106 19.46501254 1.375 17.4375 C-0.53119707 14.05833247 -0.43491115 11.0122308 -0.25 7.25 C-0.23195313 6.55261719 -0.21390625 5.85523438 -0.1953125 5.13671875 C-0.14838554 3.42388461 -0.07664605 1.71176176 0 0 Z " fill="#F7F9F7" transform="translate(96,55)"/>
<path d="M0 0 C10.23 0 20.46 0 31 0 C31 0.33 31 0.66 31 1 C17.635 1.495 17.635 1.495 4 2 C6.64 3.98 9.28 5.96 12 8 C12.33 7.67 12.66 7.34 13 7 C14.34267413 6.91368126 15.68974322 6.89293527 17.03515625 6.90234375 C18.12775757 6.90609009 18.12775757 6.90609009 19.24243164 6.90991211 C20.1730542 6.91901611 21.10367676 6.92812012 22.0625 6.9375 C26.4865625 6.9684375 26.4865625 6.9684375 31 7 C31 12.94 31 18.88 31 25 C29.68 25.33 28.36 25.66 27 26 C29.31 27.65 31.62 29.3 34 31 C33.01 31.495 33.01 31.495 32 32 C24.82700952 26.91369766 18.82974587 21.59819752 13.6875 14.4375 C10.44009626 10.11254866 6.86783239 7.7344704 2.13671875 5.19140625 C0 4 0 4 -2 2 C-1.34 2 -0.68 2 0 2 C0 1.34 0 0.68 0 0 Z " fill="#F4F6F3" transform="translate(63,48)"/>
<path d="M0 0 C0.99 0.66 1.98 1.32 3 2 C2.33355469 2.14695313 1.66710937 2.29390625 0.98046875 2.4453125 C-9.54043406 5.00564409 -19.17347233 9.30638784 -26 18 C-27.91262386 21.23276627 -27.91262386 21.23276627 -29 24 C-27.68 23.34 -26.36 22.68 -25 22 C-25.32742187 22.54140625 -25.65484375 23.0828125 -25.9921875 23.640625 C-27.21664767 26.50719067 -27.19892146 28.6452987 -27.125 31.75 C-27.09792969 33.22726563 -27.09792969 33.22726563 -27.0703125 34.734375 C-27.04710937 35.48203125 -27.02390625 36.2296875 -27 37 C-27.33 37 -27.66 37 -28 37 C-28 33.7 -28 30.4 -28 27 C-29.98 27.99 -29.98 27.99 -32 29 C-32.75319799 31.43259568 -32.75319799 31.43259568 -33 34 C-33.33 34.99 -33.66 35.98 -34 37 C-34.22797562 39.73289293 -34.41668187 42.45042204 -34.5625 45.1875 C-34.60568359 45.93708984 -34.64886719 46.68667969 -34.69335938 47.45898438 C-34.79922685 49.30578375 -34.9000976 51.15286834 -35 53 C-35.66 53 -36.32 53 -37 53 C-37 50.69 -37 48.38 -37 46 C-37.66 46 -38.32 46 -39 46 C-39.29335475 59.42912841 -37.93304051 68.68101513 -32 81 C-33.32 81 -34.64 81 -36 81 C-36.81917642 79.27398621 -37.63006016 77.5440353 -38.4375 75.8125 C-38.88996094 74.84957031 -39.34242187 73.88664062 -39.80859375 72.89453125 C-43.83830548 63.10431356 -43.58417881 49.85965015 -39.75 40.0625 C-38.83865419 38.03926152 -37.9222629 36.01828548 -37 34 C-36.38319777 32.12911856 -35.77855229 30.25417523 -35.1875 28.375 C-30.5710262 15.7394721 -21.05382778 6.73513268 -9.125 0.9375 C-5.63649917 -0.65419207 -3.630643 -1.4507381 0 0 Z " fill="#EAEDE9" transform="translate(65,34)"/>
<path d="M0 0 C3.72806384 0.809295 5.15735786 2.32101983 7.1953125 5.4765625 C7.8884595 8.31789234 7.89401248 10.63594619 7.1953125 13.4765625 C5.20609364 16.4603908 3.81028682 18.07933091 0.2578125 18.953125 C-3.66532242 19.23547183 -5.47581121 18.69581336 -8.8046875 16.4765625 C-11.03576526 13.12994587 -11.50897489 11.34815605 -11.2109375 7.4140625 C-9.85499657 0.94726731 -6.00456927 -0.37652415 0 0 Z " fill="#527B4C" transform="translate(50.8046875,85.5234375)"/>
<path d="M0 0 C3.38677089 2.45000447 4.78698584 3.86392446 5.5625 8 C4.83450185 11.88265681 4.06018871 13.46228253 1 16 C-2.1222736 16.64812539 -4.87491691 16.62146539 -8 16 C-10.4395583 14.22577578 -10.8366175 13.02218795 -11.3046875 10.09375 C-11.5294052 6.55114162 -11.34460456 4.55136729 -9.4375 1.5 C-6.00863886 -0.61006839 -3.95779649 -0.62491523 0 0 Z " fill="#517A4B" transform="translate(108,86)"/>
<path d="M0 0 C6.80365297 2.26788432 6.80365297 2.26788432 10.1875 4.875 C10.84105469 5.36742187 11.49460937 5.85984375 12.16796875 6.3671875 C14.14323757 8.12766163 15.61383687 9.74265695 17 12 C17 13.32 17 14.64 17 16 C11.39 16 5.78 16 0 16 C0 10.72 0 5.44 0 0 Z " fill="#FAFBFA" transform="translate(56,56)"/>
<path d="M0 0 C1.32 0 2.64 0 4 0 C4 5.61 4 11.22 4 17 C2.39125 17.04125 0.7825 17.0825 -0.875 17.125 C-1.77992188 17.14820312 -2.68484375 17.17140625 -3.6171875 17.1953125 C-6 17 -6 17 -8 15 C-8.25 12 -8.25 12 -8 9 C-6 7 -6 7 -2.875 6.875 C-1.92625 6.91625 -0.9775 6.9575 0 7 C0 4.69 0 2.38 0 0 Z " fill="#23661F" transform="translate(193,74)"/>
<path d="M0 0 C6.54475895 1.82394922 11.4749163 4.3712374 17.03125 8.28125 C24.40329207 12.54927435 31.14598933 13.42832459 39.5625 13.1875 C40.47580078 13.17396484 41.38910156 13.16042969 42.33007812 13.14648438 C44.55403259 13.11155315 46.77667952 13.06251586 49 13 C44.63911067 17.36088933 37.42479735 16.30567347 31.58984375 16.31689453 C20.90117052 16.13189826 10.86267039 12.04115918 3.33203125 4.28125 C2.1673016 2.89792963 1.07389948 1.45496059 0 0 Z " fill="#567E51" transform="translate(41,105)"/>
<path d="M0 0 C1.875 1.125 1.875 1.125 3 3 C3.39365568 6.14924548 3.52854531 8.11909116 1.875 10.875 C-0.91106042 12.54663625 -2.81988862 12.46376624 -6 12 C-8.35210784 9.88310295 -8.91810953 8.55958485 -9.375 5.4375 C-9 3 -9 3 -7.875 1.1875 C-5.12844028 -0.55198782 -3.18153026 -0.39769128 0 0 Z " fill="#E9ECE8" transform="translate(52,89)"/>
<path d="M0 0 C5.61 0 11.22 0 17 0 C19.37247413 5.31761443 21.72004216 10.64209908 24 16 C23.01 16 22.02 16 21 16 C19.66796875 14.49609375 19.66796875 14.49609375 18.1875 12.4375 C13.36535217 6.58203477 6.78694852 4.0122379 0 1 C0 0.67 0 0.34 0 0 Z " fill="#4C7847" transform="translate(56,73)"/>
<path d="M0 0 C0 3.3 0 6.6 0 10 C-1.60875 10.061875 -3.2175 10.12375 -4.875 10.1875 C-6.23238281 10.23970703 -6.23238281 10.23970703 -7.6171875 10.29296875 C-8.79667969 10.14794922 -8.79667969 10.14794922 -10 10 C-12.14762184 6.77856724 -12.561068 5.7404533 -12 2 C-8.61439853 -2.23200183 -4.793365 -0.87878358 0 0 Z " fill="#20651D" transform="translate(183,81)"/>
<path d="M0 0 C0 3.3 0 6.6 0 10 C-1.60875 10.061875 -3.2175 10.12375 -4.875 10.1875 C-6.23238281 10.23970703 -6.23238281 10.23970703 -7.6171875 10.29296875 C-8.79667969 10.14794922 -8.79667969 10.14794922 -10 10 C-12.14762184 6.77856724 -12.561068 5.7404533 -12 2 C-8.61439853 -2.23200183 -4.793365 -0.87878358 0 0 Z " fill="#20651D" transform="translate(156,81)"/>
<path d="M0 0 C-0.33 0.99 -0.66 1.98 -1 3 C-2.7015625 3.2165625 -2.7015625 3.2165625 -4.4375 3.4375 C-7.80777201 3.61171478 -7.80777201 3.61171478 -9 5 C-9.2500773 7.45809998 -9.2500773 7.45809998 -9 10 C-7.10244856 12.34973818 -7.10244856 12.34973818 -3.875 12.125 C-2.451875 12.063125 -2.451875 12.063125 -1 12 C-1 13.32 -1 14.64 -1 16 C-8.12208505 16.60356653 -8.12208505 16.60356653 -12 13.9375 C-14 11 -14 11 -14.6875 7.5 C-13.95319373 3.76171354 -12.95873317 2.07136623 -9.8671875 -0.19921875 C-6.42500493 -1.6754686 -3.57773172 -0.80190539 0 0 Z " fill="#175E13" transform="translate(143,75)"/>
<path d="M0 0 C-0.5625 1.9375 -0.5625 1.9375 -2 4 C-5.625 4.75 -5.625 4.75 -9 5 C-9.16687448 7.41645782 -9.16687448 7.41645782 -9 10 C-7.10244856 12.34973818 -7.10244856 12.34973818 -3.875 12.125 C-2.451875 12.063125 -2.451875 12.063125 -1 12 C-1 13.32 -1 14.64 -1 16 C-8.14514693 16.60552093 -8.14514693 16.60552093 -12 13.875 C-14 11 -14 11 -14.5625 8 C-13.87642343 4.34092496 -12.57265686 2.64832324 -10 0 C-6.7169902 -1.6415049 -3.57454967 -0.51888624 0 0 Z " fill="#165E12" transform="translate(134,102)"/>
<path d="M0 0 C2.64590014 -0.02684679 5.29153096 -0.04676357 7.9375 -0.0625 C8.69224609 -0.07087891 9.44699219 -0.07925781 10.22460938 -0.08789062 C12.14994313 -0.09652441 14.07535581 -0.05224333 16 0 C17 1 17 1 17.09765625 3.06640625 C17.08605469 3.89011719 17.07445312 4.71382813 17.0625 5.5625 C17.05347656 6.38878906 17.04445312 7.21507813 17.03515625 8.06640625 C17.02355469 8.70449219 17.01195312 9.34257813 17 10 C16.01 10 15.02 10 14 10 C13.67 7.69 13.34 5.38 13 3 C12.34 3 11.68 3 11 3 C10.67 5.31 10.34 7.62 10 10 C9.01 10 8.02 10 7 10 C6.67 7.69 6.34 5.38 6 3 C5.34 3 4.68 3 4 3 C3.67 5.31 3.34 7.62 3 10 C2.01 10 1.02 10 0 10 C0 6.7 0 3.4 0 0 Z " fill="#10590C" transform="translate(169,108)"/>
<path d="M0 0 C2.64590014 -0.02684679 5.29153096 -0.04676357 7.9375 -0.0625 C8.69224609 -0.07087891 9.44699219 -0.07925781 10.22460938 -0.08789062 C12.14994313 -0.09652441 14.07535581 -0.05224333 16 0 C17 1 17 1 17.09765625 3.06640625 C17.08605469 3.89011719 17.07445312 4.71382813 17.0625 5.5625 C17.05347656 6.38878906 17.04445312 7.21507813 17.03515625 8.06640625 C17.02355469 8.70449219 17.01195312 9.34257813 17 10 C16.01 10 15.02 10 14 10 C13.67 7.69 13.34 5.38 13 3 C12.34 3 11.68 3 11 3 C10.67 5.31 10.34 7.62 10 10 C9.01 10 8.02 10 7 10 C6.67 7.69 6.34 5.38 6 3 C5.34 3 4.68 3 4 3 C3.67 5.31 3.34 7.62 3 10 C2.01 10 1.02 10 0 10 C0 6.7 0 3.4 0 0 Z " fill="#10590C" transform="translate(149,108)"/>
<path d="M0 0 C0 3.3 0 6.6 0 10 C-6.8359375 10.1953125 -6.8359375 10.1953125 -9 10 C-11 8 -11 8 -11.3125 4.5 C-11.209375 3.345 -11.10625 2.19 -11 1 C-6.8204355 -1.78637633 -4.85331323 -0.79562512 0 0 Z " fill="#145C10" transform="translate(210,81)"/>
<path d="M0 0 C0.70125 0.00515625 1.4025 0.0103125 2.125 0.015625 C2.82625 0.01046875 3.5275 0.0053125 4.25 0 C6.125 0.265625 6.125 0.265625 8.125 2.265625 C8.4375 5.265625 8.4375 5.265625 8.125 8.265625 C4.65576119 10.57845087 3.20294425 10.69041086 -0.875 10.265625 C-2.75 9.078125 -2.75 9.078125 -3.875 7.265625 C-4.1875 4.703125 -4.1875 4.703125 -3.875 2.265625 C-1.875 0.265625 -1.875 0.265625 0 0 Z " fill="#196015" transform="translate(138.875,107.734375)"/>
<path d="M0 0 C0.66 0.66 1.32 1.32 2 2 C1.04480469 2.09796875 0.08960938 2.1959375 -0.89453125 2.296875 C-11.96986939 3.57777153 -21.43048501 6.04563512 -31 12 C-31 9 -31 9 -30 6 C-21.47666148 -0.10984215 -10.11267137 -0.98660209 0 0 Z " fill="#507A4B" transform="translate(81,35)"/>
<path d="M0 0 C2.5625 0.3125 2.5625 0.3125 4.375 1.5 C5.98775784 3.96157776 5.9959014 5.42315736 5.5625 8.3125 C4.4375 10.1875 4.4375 10.1875 2.5625 11.3125 C-0.5 11.1875 -0.5 11.1875 -3.4375 10.3125 C-5.4375 7.3125 -5.4375 7.3125 -5.1875 4.75 C-4.19253762 1.51637226 -3.41216263 0.43745675 0 0 Z " fill="#E4E8E3" transform="translate(104.4375,88.6875)"/>
<path d="M0 0 C0.33 0 0.66 0 1 0 C1 5.28 1 10.56 1 16 C6.61 16 12.22 16 18 16 C18.33 15.34 18.66 14.68 19 14 C19.77923828 15.62808594 19.77923828 15.62808594 20.57421875 17.2890625 C21.27820848 18.73458808 21.98266025 20.1798887 22.6875 21.625 C23.02716797 22.33785156 23.36683594 23.05070312 23.71679688 23.78515625 C25.99919319 28.4352721 28.53135311 32.14864776 32 36 C30.515 36.495 30.515 36.495 29 37 C23.06469913 30.33479158 20.24631551 25.98526202 18 17 C12.06 17.33 6.12 17.66 0 18 C0 12.06 0 6.12 0 0 Z " fill="#D1D9CF" transform="translate(55,56)"/>
<path d="M0 0 C2 2 2 2 2 5 C-0.31 5 -2.62 5 -5 5 C-5 5.66 -5 6.32 -5 7 C-3.02 7 -1.04 7 1 7 C0.67 7.99 0.34 8.98 0 10 C-5.42857143 10.36190476 -5.42857143 10.36190476 -7.875 8.8125 C-9.42229478 6.31963619 -9.50405716 4.88032665 -9 2 C-6.07557433 -1.24936186 -4.04996841 -1.38551551 0 0 Z " fill="#145D11" transform="translate(218,108)"/>
<path d="M0 0 C0.99 0 1.98 0 3 0 C3 2.31 3 4.62 3 7 C4.32 7 5.64 7 7 7 C7 4.69 7 2.38 7 0 C8.32 0 9.64 0 11 0 C11.25 6.625 11.25 6.625 9 10 C6.2572492 10.47114738 3.80441103 10.17805784 1 10 C0 9 0 9 -0.09765625 6.93359375 C-0.08605469 6.10988281 -0.07445312 5.28617187 -0.0625 4.4375 C-0.05347656 3.61121094 -0.04445312 2.78492187 -0.03515625 1.93359375 C-0.02355469 1.29550781 -0.01195312 0.65742187 0 0 Z " fill="#1A6017" transform="translate(189,108)"/>
<path d="M0 0 C10.23 0 20.46 0 31 0 C31 0.33 31 0.66 31 1 C17.635 1.495 17.635 1.495 4 2 C6.64 3.98 9.28 5.96 12 8 C12.66 7.67 13.32 7.34 14 7 C14 7.99 14 8.98 14 10 C13.01 10.33 12.02 10.66 11 11 C8.87890625 9.890625 8.87890625 9.890625 6.5625 8.25 C5.80066406 7.71890625 5.03882812 7.1878125 4.25390625 6.640625 C2.15454204 5.1124916 0.07104451 3.5662569 -2 2 C-1.34 2 -0.68 2 0 2 C0 1.34 0 0.68 0 0 Z " fill="#D0D8CE" transform="translate(63,48)"/>
<path d="M0 0 C6.93359375 -0.09765625 6.93359375 -0.09765625 9 0 C10 1 10 1 10.09765625 3.06640625 C10.08605469 3.89011719 10.07445312 4.71382813 10.0625 5.5625 C10.05347656 6.38878906 10.04445312 7.21507813 10.03515625 8.06640625 C10.02355469 8.70449219 10.01195312 9.34257813 10 10 C9.01 10 8.02 10 7 10 C6.67 7.69 6.34 5.38 6 3 C5.34 3 4.68 3 4 3 C3.67 5.31 3.34 7.62 3 10 C2.01 10 1.02 10 0 10 C0 6.7 0 3.4 0 0 Z " fill="#0F590B" transform="translate(159,81)"/>
<path d="M0 0 C1.175625 0.45375 2.35125 0.9075 3.5625 1.375 C10.17895245 3.61229402 17.09327605 4.22651972 24 5 C24 5.33 24 5.66 24 6 C26.475 6.495 26.475 6.495 29 7 C29 7.33 29 7.66 29 8 C18.41140277 8.50690093 8.29925582 7.42456589 -1 2 C-0.67 1.34 -0.34 0.68 0 0 Z " fill="#DAE0D9" transform="translate(53,116)"/>
<path d="M0 0 C0.99 0 1.98 0 3 0 C3 5.61 3 11.22 3 17 C1.02 16.67 -0.96 16.34 -3 16 C-2.5359375 14.2675 -2.5359375 14.2675 -2.0625 12.5 C-1.01654926 8.34586938 -0.4560958 4.2568941 0 0 Z " fill="#1A6016" transform="translate(194,74)"/>
<path d="M0 0 C3.382422 0.02437782 5.1828429 0.61614937 7.8125 2.75 C10.3125 5.375 10.3125 5.375 10.3125 7.375 C9.3225 7.045 8.3325 6.715 7.3125 6.375 C7.3125 5.715 7.3125 5.055 7.3125 4.375 C3.75896071 3.1904869 1.04236522 3.10858106 -2.6875 3.375 C-4.6875 4.375 -4.6875 4.375 -5.6875 6.375 C-6.4144226 9.48339021 -6.4144226 9.48339021 -6.6875 12.375 C-7.6775 12.045 -8.6675 11.715 -9.6875 11.375 C-10 9.1875 -10 9.1875 -9.6875 6.375 C-7.25 3.625 -7.25 3.625 -4.6875 1.375 C-3.6875 0.375 -3.6875 0.375 0 0 Z " fill="#D9E0D8" transform="translate(103.6875,83.625)"/>
<path d="M0 0 C0.99 0 1.98 0 3 0 C3 1.32 3 2.64 3 4 C3.66 4 4.32 4 5 4 C5 4.66 5 5.32 5 6 C4.34 6 3.68 6 3 6 C3 7.65 3 9.3 3 11 C3.66 11 4.32 11 5 11 C5 11.99 5 12.98 5 14 C3.35 13.67 1.7 13.34 0 13 C0 10.69 0 8.38 0 6 C-0.66 6 -1.32 6 -2 6 C-2 5.34 -2 4.68 -2 4 C-1.34 4 -0.68 4 0 4 C0 2.68 0 1.36 0 0 Z " fill="#0B5607" transform="translate(203,104)"/>
<path d="M0 0 C0.72469482 0.16298584 1.44938965 0.32597168 2.19604492 0.49389648 C4.83325585 0.9699033 7.18993341 1.11490366 9.86328125 1.09765625 C10.74951172 1.09443359 11.63574219 1.09121094 12.54882812 1.08789062 C13.46083984 1.07951172 14.37285156 1.07113281 15.3125 1.0625 C16.24384766 1.05798828 17.17519531 1.05347656 18.13476562 1.04882812 C20.42324373 1.03709234 22.71158808 1.02067363 25 1 C20.96442243 5.03557757 14.82735882 4.18287351 9.4375 4.1875 C8.30538086 4.20586914 8.30538086 4.20586914 7.15039062 4.22460938 C3.28766107 4.23481923 0.26871916 4.19359668 -3 2 C-2.01 2 -1.02 2 0 2 C0 1.34 0 0.68 0 0 Z " fill="#738E6E" transform="translate(65,117)"/>
<path d="M0 0 C1.65 0 3.3 0 5 0 C5 0.99 5 1.98 5 3 C1.85932755 6.14067245 -1.20788056 5.97821454 -5.55078125 6.09765625 C-6.79214844 6.08605469 -8.03351563 6.07445313 -9.3125 6.0625 C-10.56675781 6.05347656 -11.82101563 6.04445313 -13.11328125 6.03515625 C-14.06589844 6.02355469 -15.01851563 6.01195313 -16 6 C-16 5.67 -16 5.34 -16 5 C-10.72 4.01 -5.44 3.02 0 2 C0 1.34 0 0.68 0 0 Z " fill="#F1F3F1" transform="translate(88,117)"/>
<path d="M0 0 C0.33 0 0.66 0 1 0 C1.226875 1.093125 1.45375 2.18625 1.6875 3.3125 C3.05062066 8.8545307 5.53267113 13.87699655 8 19 C6.68 19 5.36 19 4 19 C0.40517596 12.23327239 -1.8634633 7.59719654 0 0 Z " fill="#DEE3DC" transform="translate(25,96)"/>
<path d="M0 0 C2.5703125 1.26953125 2.5703125 1.26953125 5.125 2.8125 C5.97320312 3.31394531 6.82140625 3.81539063 7.6953125 4.33203125 C10.01875144 6.01357096 11.42275619 7.62382549 13 10 C9.58562009 8.68771164 6.36375391 7.19698288 3.125 5.5 C-0.8828423 3.46608003 -4.63615687 2.0435277 -9 1 C-5.58672886 -1.14909664 -3.84011926 -1.05393054 0 0 Z " fill="#E0E5DF" transform="translate(61,75)"/>
<path d="M0 0 C0.33 0.66 0.66 1.32 1 2 C-3.05230726 7.95857014 -7.2036661 13.61874733 -12 19 C-13 16 -13 16 -12.375 14.0625 C-11 12 -11 12 -8.75 10.25 C-5.14237484 7.29830669 -2.67569331 3.78826682 0 0 Z " fill="#738F6E" transform="translate(119,99)"/>
<path d="M0 0 C0.33 0 0.66 0 1 0 C1.03738281 0.90621094 1.07476563 1.81242187 1.11328125 2.74609375 C1.4625399 9.21765101 1.92097728 15.0669116 4.28125 21.1328125 C5.02531235 23.06575708 5.53403335 24.98379813 6 27 C2.32117927 23.71533863 0.24849899 20.33639092 -2 16 C-2 15.34 -2 14.68 -2 14 C-1.34 14 -0.68 14 0 14 C0 9.38 0 4.76 0 0 Z " fill="#6E8C69" transform="translate(22,85)"/>
<path d="M0 0 C1.70736328 -0.02126953 1.70736328 -0.02126953 3.44921875 -0.04296875 C6.3125 0.1875 6.3125 0.1875 8.3125 2.1875 C2.7025 2.8475 -2.9075 3.5075 -8.6875 4.1875 C-8.6875 3.5275 -8.6875 2.8675 -8.6875 2.1875 C-9.6775 1.8575 -10.6675 1.5275 -11.6875 1.1875 C-7.74869868 0.26376611 -4.04226634 0.02304599 0 0 Z " fill="#728F6E" transform="translate(74.6875,34.8125)"/>
<path d="M0 0 C4.3322929 -0.4247346 6.34962488 -0.47048413 9.9375 2.125 C12.30954571 5.43148796 12.46233492 7.0239197 12 11 C11.01 10.67 10.02 10.34 9 10 C8.71125 9.195625 8.4225 8.39125 8.125 7.5625 C7.24167349 4.77303864 7.24167349 4.77303864 4.5 3.875 C3.675 3.58625 2.85 3.2975 2 3 C1.34 2.01 0.68 1.02 0 0 Z " fill="#65875F" transform="translate(101,86)"/>
<path d="M0 0 C0.99 0 1.98 0 3 0 C3 3.3 3 6.6 3 10 C1.35 9.67 -0.3 9.34 -2 9 C-1.125 1.125 -1.125 1.125 0 0 Z " fill="#105A0C" transform="translate(180,81)"/>
<path d="M0 0 C0.99 0 1.98 0 3 0 C3 3.3 3 6.6 3 10 C1.35 9.67 -0.3 9.34 -2 9 C-1.125 1.125 -1.125 1.125 0 0 Z " fill="#105A0C" transform="translate(153,81)"/>
<path d="M0 0 C1.8125 1.6875 1.8125 1.6875 3 4 C2.6875 7.75 2.6875 7.75 2 11 C1.67 11 1.34 11 1 11 C0.57682292 8.98177083 0.15364583 6.96354167 -0.26953125 4.9453125 C-0.92308838 2.62953451 -0.92308838 2.62953451 -4 1 C-6.32387947 0.60612212 -8.65793749 0.26513915 -11 0 C-11 -0.33 -11 -0.66 -11 -1 C-3.30612245 -2.47959184 -3.30612245 -2.47959184 0 0 Z " fill="#CED7CC" transform="translate(57,86)"/>
<path d="M0 0 C1.25 2.5625 1.25 2.5625 2 5 C1.34 5 0.68 5 0 5 C-0.33 5.99 -0.66 6.98 -1 8 C-1.309375 6.824375 -1.309375 6.824375 -1.625 5.625 C-2.80676612 2.69083714 -2.80676612 2.69083714 -6.125 1.6875 C-7.07375 1.460625 -8.0225 1.23375 -9 1 C-9 0.67 -9 0.34 -9 0 C-3.07058824 -1.48235294 -3.07058824 -1.48235294 0 0 Z " fill="#587E51" transform="translate(56,88)"/>
<path d="M0 0 C2.72426311 2.35277269 3.8141763 4.62496331 5 8 C2 8 2 8 0.61328125 6.6875 C-0.59114583 5.125 -1.79557292 3.5625 -3 2 C-2.01 1.34 -1.02 0.68 0 0 Z " fill="#6B8B66" transform="translate(75,81)"/>
<path d="M0 0 C0.33 1.65 0.66 3.3 1 5 C-0.32 5 -1.64 5 -3 5 C-3 4.34 -3 3.68 -3 3 C-5.51083114 4.25541557 -5.87125446 5.50063488 -7 8 C-7.25 5.6875 -7.25 5.6875 -7 3 C-4.51960083 0.51960083 -3.55547616 0 0 0 Z " fill="#548851" transform="translate(216,107)"/>
<path d="M0 0 C2.63886669 3.18483911 5.14494105 6.2898821 7 10 C6.67 10.99 6.34 11.98 6 13 C5.01886757 11.70982586 4.04015801 10.41780894 3.0625 9.125 C2.51722656 8.40570313 1.97195312 7.68640625 1.41015625 6.9453125 C0 5 0 5 -1 3 C-0.67 2.01 -0.34 1.02 0 0 Z " fill="#7A9474" transform="translate(114,45)"/>
<path d="M0 0 C0 0.66 0 1.32 0 2 C-2.31 2.66 -4.62 3.32 -7 4 C-7 3.34 -7 2.68 -7 2 C-7.66 1.67 -8.32 1.34 -9 1 C-6.04335481 -0.4783226 -3.25770263 -0.06032783 0 0 Z " fill="#5B8055" transform="translate(66,37)"/>
<path d="M0 0 C0.33 0 0.66 0 1 0 C1.9765625 6.0546875 1.9765625 6.0546875 2 8 C1.34 8.66 0.68 9.32 0 10 C0 9.01 0 8.02 0 7 C-0.66 7 -1.32 7 -2 7 C-2 5.35 -2 3.7 -2 2 C-1.34 2 -0.68 2 0 2 C0 1.34 0 0.68 0 0 Z " fill="#CEDDCD" transform="translate(208,108)"/>
<path d="M0 0 C0.66 0.33 1.32 0.66 2 1 C0.63016497 4.16115776 0.0109362 4.9927092 -3 7 C-3.66 6.34 -4.32 5.68 -5 5 C-3.35 3.35 -1.7 1.7 0 0 Z " fill="#DCE2DA" transform="translate(43,43)"/>
<path d="M0 0 C1.32 0.66 2.64 1.32 4 2 C3.67 2.99 3.34 3.98 3 5 C1.68 5 0.36 5 -1 5 C-0.67 3.35 -0.34 1.7 0 0 Z " fill="#DBE6DB" transform="translate(176,83)"/>
<path d="M0 0 C1.32 0.66 2.64 1.32 4 2 C3.67 2.99 3.34 3.98 3 5 C1.68 5 0.36 5 -1 5 C-0.67 3.35 -0.34 1.7 0 0 Z " fill="#DBE6DB" transform="translate(149,83)"/>
<path d="M0 0 C4.41889613 1.35021826 6.34345343 3.26115668 9 7 C5.00499382 5.6302836 2.19990508 3.74277578 -1 1 C-0.67 0.67 -0.34 0.34 0 0 Z " fill="#D1D9CF" transform="translate(65,78)"/>
<path d="M0 0 C2.47524576 2.90572328 3.69670231 5.15822926 4 9 C3.34 9.66 2.68 10.32 2 11 C0.57741188 7.17679443 -0.24042276 4.08718695 0 0 Z " fill="#D7DED5" transform="translate(73,70)"/>
<path d="M0 0 C0.99 0 1.98 0 3 0 C2.60196439 2.88575819 2.20990931 3.82189513 -0.0625 5.75 C-0.701875 6.1625 -1.34125 6.575 -2 7 C-1.125 1.125 -1.125 1.125 0 0 Z " fill="#648860" transform="translate(108,111)"/>
<path d="M0 0 C0.66 0.33 1.32 0.66 2 1 C0.84826645 3.46800047 -0.04783565 5.04783565 -2 7 C-2.66 6.67 -3.32 6.34 -4 6 C-2.84826645 3.53199953 -1.95216435 1.95216435 0 0 Z " fill="#DFE4DD" transform="translate(42,84)"/>
<path d="M0 0 C1.65 0 3.3 0 5 0 C5 1.32 5 2.64 5 4 C3.35 3.67 1.7 3.34 0 3 C0 2.01 0 1.02 0 0 Z " fill="#E0E9DF" transform="translate(202,84)"/>
<path d="M0 0 C0.99 0.33 1.98 0.66 3 1 C3 2.32 3 3.64 3 5 C1.68 5 0.36 5 -1 5 C-0.67 3.35 -0.34 1.7 0 0 Z " fill="#E5EDE5" transform="translate(140,110)"/>
<path d="M0 0 C0.99 0.33 1.98 0.66 3 1 C3 2.32 3 3.64 3 5 C1.68 5 0.36 5 -1 5 C-0.67 3.35 -0.34 1.7 0 0 Z " fill="#E6EEE6" transform="translate(190,83)"/>
<path d="M0 0 C0 2.64 0 5.28 0 8 C-0.66 6.68 -1.32 5.36 -2 4 C-2.99 4 -3.98 4 -5 4 C-4.67 3.01 -4.34 2.02 -4 1 C-2 0 -2 0 0 0 Z " fill="#799274" transform="translate(37,61)"/>
<path d="M0 0 C1.65 0.33 3.3 0.66 5 1 C5 1.99 5 2.98 5 4 C2.36 3.67 -0.28 3.34 -3 3 C-2.01 2.67 -1.02 2.34 0 2 C0 1.34 0 0.68 0 0 Z " fill="#708F6A" transform="translate(65,117)"/>
<path d="M0 0 C3.625 -0.1875 3.625 -0.1875 7 0 C6.67 0.66 6.34 1.32 6 2 C3.35139573 2.59355614 0.70802678 2.74209269 -2 3 C-1.34 2.01 -0.68 1.02 0 0 Z " fill="#487643" transform="translate(46,86)"/>
<path d="M0 0 C1.65 1.32 3.3 2.64 5 4 C4.67 5.65 4.34 7.3 4 9 C1.49701566 6.06171403 0.53069061 3.82097239 0 0 Z " fill="#E4E8E2" transform="translate(117,53)"/>
<path d="M0 0 C1.98 0.66 3.96 1.32 6 2 C5.01 3.485 5.01 3.485 4 5 C2.02 4.01 0.04 3.02 -2 2 C-1.34 1.34 -0.68 0.68 0 0 Z " fill="#D5DCD3" transform="translate(63,49)"/>
</svg>
