<?xml version="1.0" encoding="UTF-8"?>
<svg id="Layer_1" data-name="Layer 1" xmlns="http://www.w3.org/2000/svg" viewBox="0 0 468.921 217.953">
  <path d="M167.33,19.249c5.36,3.675,23.059,17.596,24.022,22.732.531,2.834-3.496,3.482-5.342,1.107-1.462.718-1.974.073-1.698-1.703l-11.887-8.514c-3.222,3.318-3.719,2.868-3.396-1.703-3.152-2.079-6.548-3.782-10.189-5.108l-4.596,2.281c-25.838-8.057-54.545-9.134-79.115,3.629l-2.896-.802-8.491,5.108c-.715,4.904-10.411,11.426-15.284,13.622-.955,3.066-3.555,6.906-6.793,6.811-6.213,16.378-12.532,33.132-18.957,50.261l-4.818,2.526c-2.359,8.328-4.623,16.274-6.793,23.839-4.932-1.673-4.232-14.558-3.078-19.243l10.704-21.633c2.392-15.534,8.407-28.228,18.046-38.081-5.665-8.948-3.471-19.201,6.854-10.426.341-2.961,1.796-3.662,4.833-2.567,7.973-12.405,16.424-17.026,30.828-18.934l4.834-3.202c1.266-.921,2.315-1.973,2.55-3.648,21.666,2.795,36.18-14.158,3.28-7.065-13.94,3.006-25.874,8.368-37.578,15.7l-3.914-1.582c-2.705.605-2.705-.531,0-3.406,35.755-23.52,83.808-27.724,118.872,0Z" fill="#437b3c"/>
  <path d="M48.458,41.385c-2.008.071-.162,5.308-4.273,6.796-2.689.973-6.537-9.518-7.627-2.495-.363,2.34,4.878,5.055,3.258,9.961-.704,2.131-4.021,2.268-5.019,3.967-7.215,12.287-9.384,20.441-12.542,32.919-1.292,5.107-10.093,17.654-11.085,22.992s.513,12.198-.072,17.81c1.477,2.586,5.8,25.38,5.006,26.501-2.383,3.361-6.304-4.876-6.704-7.77-4.976-8.486-4.825-11.279-6.793-20.433-.808-3.739-.808-7.144,0-10.217-4.895-22.237.989-43.235,11.289-62.992,5-9.59,12.832-22.269,22.674-25.553l4.761,2.193c5.462-2.448,13.561.957,7.127,6.321Z" fill="#427c3b"/>
  <path d="M382.998,143.552h-11.887v-34.056h-3.396v34.056h-13.585v-34.056h-3.396v34.056h-11.887v-40.867c5.84,2.623,17.414-1.716,20.993-1.316,2.901.324,5.622,4.235,7.027,4.241,1.573.007,4.375-4.614,8.223-4.282,1.848.159,7.909,4.563,7.909,5.614v36.61Z" fill="#437a3d"/>
  <path d="M289.599,102.685c4.8-1.096,9.955,1.286,14.23,1.221,1.945-.03,4.125-2.85,6.732-2.608,2.779.258,5.63,4.315,7.057,4.313,1.409-.002,3.782-3.964,8.189-4.131,2.948-.112,7.944,2.293,7.944,5.462v36.61h-11.887v-34.056h-3.396v34.056h-11.887v-31.501c0-1.11-3.642-3.267-5.095-2.554v34.056h-11.887v-40.867Z" fill="#427a3c"/>
  <path d="M213.181,116.307c1.882,6.312-.331,19.629-6.793,23.839-.928.676-4.495,3.129-5.095,3.406-1.436.028-5.609-.015-6.252-.489-.819-.603-4.481-13.212-3.937-14.836l-1.935,1.246c-8.796-8.188-18.593-6.377-26.942,1.196l-3.388-.739c-.512.918-1.08.896-1.698,0-5.082-7.995-11.39-13.676-18.924-17.043-3.519-5.478-9.033-9.046-7.059.178l-2.886,3.243c-3.08-1.109-7.286-9.202-5.095-11.919.357-4.305,4.547-9.876,8.491-8.514,5.322,2.683,10.417,6.656,15.284,11.919,2.175-2.352,7.084.282,8.491,3.406,1.485-2.666,4.795-2.703,9.929-.111,1.069-2.298,29.839-4.917,26.965-3.431-1.159.6-2.361-1.502-1.232-3.269,5.342-.076,11.003-.076,16.982,0-.057-3.397-.057-6.802,0-10.217-.199-4.545.063-5.085,3.396-1.703,3.855,7.067,2.721,15.956,1.698,23.839Z" fill="#437b3d"/>
  <path d="M235.257,57.561c.112.453,2.501,3.326,3.398,1.721,4.296-11.834-3.317-14.378,13.592-12.798.41,10.128,1.764,18.603-10.083,21.415-21.913,5.202-22.081-18.234-20.558-34.242,2.72-28.601,37.578-21.626,30.642,6.033-18.036,2.047-8.81-2.601-13.592-14.501-.931-1.683-3.398,1.525-3.398,1.721,0,7.419-1.424,24.899,0,30.65Z" fill="#437a3d"/>
  <path d="M235.257,134.186c.112.453,2.501,3.326,3.398,1.721,4.296-11.834-3.317-14.378,13.592-12.798,1.874,11.928-1.049,21.502-14.584,22.041-18.406.732-17.443-25.289-15.849-38.057,3.023-24.229,37.331-17.479,30.433,7.52h-11.904s.002-13.64.002-13.64l-5.087.009c1.504,9.227-2.046,24.944,0,33.204Z" fill="#427a3c"/>
  <path d="M382.998,17.546v49.381c-4.793,1.104-9.971-1.298-14.23-1.221-3.248.059-7.852,6.067-13.071-1.214-2.28-3.181-2.505-29.474-1.225-33.834,2.606-8.876,16.027-2.185,16.628-2.902-1.219-12.881.257-10.371,11.899-10.211Z" fill="#447b3e"/>
  <path d="M318.468,66.927h-13.585v-34.056h-3.396v34.056h-11.887V26.06c6.617,2.04,28.869-3.464,28.869,5.96v34.907Z" fill="#437b3d"/>
  <path d="M386.395,41.385c-.699-1.897.901-8.779,2.025-10.748,4.657-8.154,26.844-6.231,26.844,4.788v31.501c-10.563-3.279-26.412,7.796-28.783-7.79-1.577-10.366,1.52-9.995,8.405-14.346-.784-2.107-3.615-3.242-8.491-3.406Z" fill="#447b3e"/>
  <path d="M268.823,101.297c23.476-2.81,21.607,39.595,8,42.201-6.921,1.325-17.858.852-19.446-7.653-2.019-10.811-2.646-32.861,11.446-34.548Z" fill="#447b3f"/>
  <path d="M321.864,41.385c-1.562-4.133,1.17-12.088,5.5-14.065,10.192-4.654,23.369-1.354,23.369,11.511v28.096c-4.831.938-10.104-.955-14.51-.919-3.383.028-7.827,5.452-12.79-1.515-5.13-7.2-1.282-15.143,5.224-19.702-.607-1.96-2.871-3.095-6.793-3.406Z" fill="#437b3d"/>
  <path d="M415.264,143.552c-4.076-1.365-27.171,1.813-27.171-2.554v-38.312h11.887v34.056c3.977.226,3.004.583,3.4-2.524.653-5.127-1.117-30.419-.003-31.532,11.024-2.776,16.298-1.538,12.696,11.189.467,9.911.197,19.804-.809,29.678Z" fill="#447b3e"/>
  <path d="M467.907,114.604c3.058,9.064-2.036,12.47-15.284,10.217,1.509,2.607,2.641,3.174,3.396,1.703,1.516-2.733,10.406-2.629,11.887,0-.76,6.139.999,15.275-7.671,16.985-18.326,3.613-21.993-7.011-21.27-23.017.445-9.857,1.993-18.328,13.221-19.16,10.398-.771,13.704,4.711,15.72,13.273Z" fill="#447b3e"/>
  <path d="M269.221,41.385l-11.896.007c-7.106-19.641,27.18-18.192,27.18-9.372v34.907c-4.183.972-9.144-1.108-12.802-.919-3.152.163-9.681,5.669-13.539-.773-1.502-2.507-1.506-14.575-.011-17.069,1.913-3.192,9.599-2.637,12.767-6.78-.318-1.228-.899-1.154-1.698,0Z" fill="#447b3e"/>
  <path d="M418.66,102.685c.08-.124,2.269.403,2.889-.554.95-1.467-.167-4.203,1.476-4.67.976-.278,8.93-.275,9.936.006,1.505.42.695,3.014,1.627,4.515.825,1.329,3.238.117,2.906,4.983-.229,3.358-3.268,1.616-3.683,4.972-.566,4.582-.586,17.819,0,22.365.232,1.799,6.702,5.856,3.537,9.244-.709.759-14.001-.237-15.054-1.937-3.123-5.043,4.291-27.191-3.633-32.11-2.495-.605-2.725-6.148,0-6.811Z" fill="#437a3d"/>
  <path d="M22.985,157.174c4.57-2.647,7.397.566,8.483,9.637,25.94,40.514,57.042,51.933,103.667,39.88.72-.186,1.64.405,2.616,1.219,6.749-4.521,14.535-7.87,22.786-8.167-.34-3.421,7.538-7.614,10.189-5.108.825.52.803,1.089,0,1.703-42.305,32.771-90.349,26.026-130.759-5.108-4.536-5.923-9.24-11.411-14.114-16.464l.528-2.266c-4.702-1.355-7.663-13.341-3.396-15.325Z" fill="#477e42"/>
  <path d="M56.949,133.335c3.998.755,1.482,5.062-1.698,5.108-1.244,4.993-.678,9.534,1.698,13.622,11.378,1.205,23.156-1.488,15.397-15.379l1.584-3.351c-2.888-4.035.439-5.052,3.396-1.703,1.658-2.044,2.756-.636,3.396,1.703,3.559-3.264,8.162,3.991,5.095,6.811,2.573,18.352-18.922,29.81-32.208,17.755-1.636-1.484-1.281-3.46-1.755-4.132-2.696-4.6-3.262-10.275-1.698-17.028-5.917-2.341,1.042-11.537,5.095-6.811,3.959-.695,4.525.44,1.698,3.406Z" fill="#528149"/>
  <path d="M48.458,19.249v3.406c2.342,3.934.695,5.312-3.396,3.406.356,4.36-3.391,5.771-6.793,3.406.162,2.665-.404,3.8-1.698,3.406-17.181,15.578-18.889,19.334-25.59,41.279-.202.66-6.353,7.03-6.549,7.698-3.045,10.377-1.823,28.304-1.824,39.567-.482,1.487-1.049,1.465-1.698,0C-4.177,77.911,12.132,43.145,48.458,19.249Z" fill="#497b41"/>
  <path d="M172.425,128.227c3.145-1.611,7.049-1.632,10.189,0,2.273-3.434,7.26-.05,5.095,3.406,5.872,1.743,9.695,11.834,5.095,15.325-.138,1.84-1.251,2.416-1.698,3.406-4.682,7.443-12.248,9.158-20.378,6.811-4.835-1.735-7.541-2.841-8.491-8.514-1.395-2.62-1.395-6.026,0-10.217-5.867-5.593,5.211-15.513,10.189-10.217Z" fill="#5b8454"/>
  <path d="M73.931,175.904c12.674,6.472,24.707,14.137,39.058,17.028,4.583-1.316,6.281-.749,5.095,1.703-4.438,1.703-7.834,1.703-10.189,0-9.938,1.401-21.617-1.367-30.904-5.456-7.713-3.396-20.354-9.589-20.042-18.383-1.62-7.348,13.512,1.34,16.982,5.108Z" fill="#54814d"/>
  <path d="M72.232,119.713c2.799-8.978,13.133-4.535,14.856,4.299l4.133,3.637c6.706-4.59,12.374-1.558,17.003,9.094,3.88,5.508,18.325,5.818,18.35-1.705-.328-3.485,1.228-2.164,3.396,0,2.159-3.902,2.798-2.476,3.396,1.703.774.553,5.102,5.212,6.793,6.811.491.85.856,1.523.782,1.576-2.138,1.523-50.426,2.405-52.133.229-.844-5.077-1.839-10.922-6.53-13.968l.143-3.162c-3.798-3.933-5.836-5.415-10.189-8.514Z" fill="#447c3d"/>
  <path d="M53.552,163.985c.113,1.855,1.454,3.308,4.021,4.359l-.625,2.452c13.325,14.98,30.918,22.437,50.945,23.839,1.483.483,1.461,1.052,0,1.703-2.682-.311-5.975.45-8.491,0-4.423.921-9.44-.185-13.585-1.703-5.75.212-11.661-1.709-17.732-5.763-4.113,2.274-6.93.41-6.042-4.454-2.326,2.42-3.284,1.368-1.698-1.703-3.787-1.8-14.935-10.082-15.383-13.488-.069-.524.739-1.164,1.798-1.837-.065-.376,2.436-2.983.005-6.799,3.357-.978,4.704,2.261,6.788,3.394Z" fill="#eaeeea"/>
  <path d="M158.839,129.929c2.292-3.34,12.141-8.132,16.325-8.447,4.97-.373,12.685,3.172,15.94,6.744,2.922,5.795,1.196,8.98-3.396,3.406-1.203-1.49-3.243-3.057-5.095-3.406-3.151-1.611-7.013-1.578-10.189,0-7.765,1.17-8.115,3.763-10.189,10.217l-1.698,10.217-1.715-10.208c-3.559-.385-.78,5.898-1.675,6.818-.237.244-5.642.212-6.799-.015-1.376-.488-1.354-1.057,0-1.703,3.919-2.181,6.75-6.722,8.491-13.622Z" fill="#e2e7e2"/>
  <path d="M24.683,126.524c1.857,8.609,4.863,13.19,8.491,20.433,2.849,5.688,1.833,6.299,6.793,11.919l5.095,6.811c.59.442,1.029,1.277,1.698,1.703.756,4.372,9.812,12.548,13.585,15.325-1.047,1.174-2.317,1.99-3.885,2.214-12.163,1.732-33.87-41.328-35.173-49.891-2.228-6.418-.306-17.537,3.396-8.514Z" fill="#477e42"/>
  <path d="M174.123,186.121c-1.359,7.086-12.995,12.07-20.378,11.919,1.06,3.794-10.274,7.806-11.887,3.406-3.078,3.353-5.342,3.92-6.793,1.703-1.093,5.216-6.752,4.529-8.491,0-5.429,1.352-11.09,1.352-16.982,0-5.478,4.058-10.927,3.475-15.284-1.703-4.219-.721-7.049-2.424-8.491-5.108,2.697-1.476,7.886-.587,10.189,1.703,4.885,1.07,6.822,1.353,11.887,1.703,7.742,1.382,15.667,1.382,23.774,0,15.594-2.357,28.192-7.265,42.454-13.622Z" fill="#558352"/>
  <path d="M118.083,102.685l2.346.51c5.546,14.82,13.158,26.278,24.825,36.951,2.949-3.537,4.849-2.899,5.095,1.703,1.45.555,1.447,1.122,0,1.703v1.703c-4.074-.8-10.172-6.68-13.617-9.333-2.515-1.937-3.623-5.157-3.364.819-.814-.582-2.439-1.391-3.396-1.703-5.29-1.229-9.291-8.418-8.081-12.503l-3.806-7.931c-3.373.405-4.09-.988-1.698-3.406-1.666-3.743-2.798-7.149-3.396-10.217-3.068-3.202-2.702-3.668,1.698-3.406,3.19-2.89,5.986,2.462,3.396,5.108Z" fill="#e8ece7"/>
  <path d="M17.891,157.174c4.065.71,5.076,10.446,3.396,13.622-1.018.652-2.15.084-3.396-1.703-3.334-5.279-8.616-10.331-8.491-17.028,1.115,1.901,3.246,6.281,5.078,6.801-.662-8.186-3.685-17.387-3.38-25.532.305-8.16,3.535-16.703,6.793-23.839-4.846,17.277-4.65,30.524,0,47.678Z" fill="#5b8755"/>
  <path d="M189.406,177.607c-3.178,3.479-6.895,8.837-10.189,11.919-2.835,1.973-5.665,3.675-8.491,5.108-3.647,2.236-6.711,3.29-10.189,5.108-4.783,1.587-7.047,1.02-6.793-1.703,7.431-2.729,14.31-7.363,20.378-11.919,2.94-2.207,5.712-4.4,8.491-6.811,1.851-1.48,3.549-2.048,5.095-1.703.507-.993,1.075-.97,1.698,0Z" fill="#467d40"/>
  <path d="M199.595,51.602c3.223,5.915,2.376,7.395-3.396,3.406-5.917.793-11.768-6.201-10.189-11.919l3.399-2.554c-7.367-6.847-14.21-15.062-22.079-21.285,14.374,6.709,24.124,19.443,32.265,32.353Z" fill="#4e7e47"/>
  <path d="M418.66,102.685c-.498.769.343,5.035,0,6.811-.123.637-1.574,1.827-1.767,4.123-.801,9.564,2.162,21.042-1.63,29.933l.009-40.875-11.896.009c3.616-3.4,11.155-2.048,15.284,0Z" fill="#f5f8f4"/>
  <path d="M197.897,61.818c2.348-1.561,4.592.948,3.396,3.406,8.101,9.703,11.859,23.66,13.585,35.758,1.027,4.923,2.101,11.896-1.698,15.325.146-7.993.15-16.069-1.698-23.839-8.993-15.568-13.489-23.353-13.489-23.353-4.365-2.744-6.095-5.745-5.191-9,2.236-3.388,5.209-2.322,5.095,1.703Z" fill="#52804c"/>
  <path d="M206.388,140.146c5.36-6.704,5.452-15.696,6.793-23.839.752-4.569,3.007-9.554,1.698-15.325.391,2.743,1.891,4.476,1.825,9.379-.071,5.32-2.806,23.181-5.385,27.12-1.908,2.914-4.052,2.024-4.931,2.665Z" fill="#588251"/>
  <path d="M82.421,128.227c2.105,2.18,4.781,2.643,6.038,6.716.947,3.069.391,9.948.747,10.323,1.434,1.514,36.098.077,41.638.019,2.869-.03,7.549,1.088,9.316-1.732.883.835,2.596.269,1.69,3.397-8.694-1.605-48.173,2.479-52.743-.733-2.001-1.406-1.642-4.65-1.649-6.885l-1.639.816c-.259-1.847-3.222-5.666-5.095-6.811-2.414-2.053-2.414-3.188,0-3.406.116-.413,1.363-1.04,1.698-1.703Z" fill="#e0e5df"/>
  <path d="M201.294,143.552c-5.223,2.413-6.127-1.755-8.491,3.406.342-4.555-2.279-11.837-5.095-15.325,3.609.409,3.804.213,3.396-3.406,5.533,6.072,3.243,14.297,10.189,15.325Z" fill="#d7ded4"/>
  <path d="M140.159,191.229c1.579-.063,2.223,0,1.698,1.703-.745.23-1.776,1.298-3.396,1.703-5.056,1.309-9.018,1.309-11.887,0-2.492,1.387-6.213,1.424-8.491,0-.972-2.396-3.371-1.356-5.095-1.703,7.683-3.809,18.503-.789,27.171-1.703Z" fill="#b0b5ac"/>
  <path d="M467.907,126.524c-3.779-.381-8.277.55-11.887,0-1.591,3.361-2.863,1.346-3.396-1.703,1.138-3.515,11.913-.992,15.292-1.693l-.009-8.524c1.803,7.658.813,5.355,0,11.919Z" fill="#e7eee7"/>
  <path d="M321.864,41.385c2.314-.402,11.31.586,11.897.009,1.236-1.216-2.907-10.384,3.378-8.515,2.163,11.59-4.029,8.79-8.482,11.911-1.457-2.274-5.873-.972-6.793-3.406Z" fill="#f8faf8"/>
  <path d="M386.395,41.385c2.314-.402,11.31.586,11.897.009,1.236-1.216-2.907-10.384,3.378-8.515,1.304,9.108-1.163,8.358-6.784,11.911-1.521-3.11-7.293-.156-8.491-3.406Z" fill="#fdfdfd"/>
  <path d="M39.967,191.229c-6.101-4.701-5.71-5.038-11.887-8.514-.266-2.044-1.398-3.747-3.396-5.108-1.378-.473-1.352-1.042,0-1.703-.393-3.599.173-4.734,1.698-3.406.29.493,2.951,1.605,4.146,3.429,3.185,4.859,6.977,10.178,9.439,15.302Z" fill="#e4e8e3"/>
  <path d="M204.69,58.413c.749,2.533,1.208,4.398-1.698,3.406-2.904.779-4.189-.496-3.396-3.406-2.866,2.136-4.946-.119-3.396-3.406,3.609.409,3.804.213,3.396-3.406,1.192,1.89,3.577,3.761,5.095,6.811Z" fill="#71926b"/>
  <path d="M73.931,175.904c-5.092-2.6-9.9-6.712-15.842-6.534l-1.14,1.426c-1.415-1.591-8.266-4.403-3.396-6.811,7.382,4.012,15.948,4.748,20.378,11.919Z" fill="#598754"/>
  <path d="M131.668,199.743c-7.219,1.091-16.961,4.211-23.774,0,7.837.541,15.915-.384,23.774,0Z" fill="#eceeeb"/>
  <path d="M99.403,196.338l-3.396,1.703c-3.375-.739-6.606-2.072-10.189-1.703-1.483-.483-1.461-1.052,0-1.703,4.783.541,7.653.642,13.585,1.703Z" fill="#eceeeb"/>
  <path d="M126.574,194.635c1.869,1.933.933,2.54-1.698,1.703-4.86.751-9.954,1.318-15.284,1.703-.981-.201-1.676-.575-1.698-1.703v-1.703c3.359.235,6.813-.093,10.189,0,2.688.074,5.775.01,8.491,0Z" fill="#769471"/>
  <path d="M201.294,163.985c-1.426,2.292-1.41,2.622-3.396,5.108-1.207.691-2.348.767-3.396,0,.704-.815,3.978-5.312,5.095-6.811,2.386-2.257,3.261-1.305,1.698,1.703Z" fill="#748b70"/>
  <path d="M21.287,170.796c2.481-2.842,4.927,2.084,3.396,5.108-.153.515.114,1.162,0,1.703,1.483.483,1.461,1.052,0,1.703-3.747-3.875-4.353-6.354-6.793-10.217,1.015.666,2.51,1,3.396,1.703Z" fill="#a5aca2"/>
  <path d="M51.854,153.768c-.478-.678-3.219-1.219-3.396-1.703-1.435-3.914.334-11.408,1.698-15.325l1.698,17.028Z" fill="#5b8555"/>
  <path d="M269.221,41.385l.866-8.523,2.521.017c.327,3.764.564,5.559-1.689,8.506h-1.698Z" fill="#fefefe"/>
  <path d="M197.897,169.093c-1.773,2.22-2.678,4.036-5.095,6.811-3.163,1.839-3.213-.687-1.698-3.406,1.061-1.096,2.632-2.521,3.396-3.406l2.556-1.655.841,1.655Z" fill="#63875f"/>
  <path d="M138.461,194.635c-4.375,1.094-9.028,2.993-13.585,3.406-1.483-.483-1.461-1.052,0-1.703.799-.116,1.513-.886,1.698-1.703,3.701-.013,7.882-.748,11.887,0Z" fill="#eceeeb"/>
  <path d="M170.726,157.174c8.75,1.164,14.177-.921,20.378-6.811-4.283,9.481-11.049,10.158-20.378,6.811Z" fill="#608659"/>
  <path d="M124.876,196.338v1.703c-3.586.325-12.17.637-15.284,0,3.47-3.568,10.512-1.01,15.284-1.703Z" fill="#eaeeea"/>
  <path d="M204.69,158.877c-1.542,3.048-2.342,3.415-3.396,5.108l-1.698-1.703c.941-1.263,1.865-3.062,3.396-5.108,2.386-2.257,3.261-1.305,1.698,1.703Z" fill="#a0ac9c"/>
  <path d="M179.217,189.527c-3.845,3.597-4.999,4.106-8.491,6.811v-1.703c2.883-1.768,4.769-4.928,8.491-5.108Z" fill="#558352"/>
  <path d="M204.69,158.877l-1.698-1.703c1.504-2.01,1.776-6.133,5.078-6.811,1.289,4.275-2.2,6.184-3.379,8.514Z" fill="#bcc0ba"/>
  <path d="M146.952,189.527c.543-.128,3.498-3.119,5.086-1.694,2.805,2.519-3.365,4.56-5.086,5.1-4.424-.585-4.022-1.737,0-3.406Z" fill="#f0f0f0"/>
  <path d="M146.952,189.527v3.406c-1.319.414-3.764-.41-5.095,0l-1.698-1.703c.418-.044,5.316-1.354,6.793-1.703Z" fill="#cdceca"/>
  <path d="M206.388,65.224c1.483.483,1.461,1.052,0,1.703-.724-.699-3.304-3.132-3.396-3.406-1.565-.391-1.522-.963,0-1.703-.007-.232,1.915-2.187,1.698-3.406,1.153,2.318,2.626,3.531,1.698,6.811Z" fill="#9cab98"/>
  <path d="M45.062,165.688c-2.568-1.924-5.129-2.762-5.095-6.811,1.6,1.813,5.518,2.509,5.095,6.811Z" fill="#eaeeea"/>
  <path d="M206.388,65.224c3.617-.989,3.756,2.271,5.094,5.092-3.643,1.029-3.57-1.916-5.094-3.389v-1.703Z" fill="#c7cac4"/>
  <path d="M192.803,175.904c-.61.701-2.76,1.006-3.396,1.703h-1.698c-.838-.563-.272-1.698,1.698-3.406.569-.56,1.143-1.129,1.698-1.703l1.698,3.406Z" fill="#558352"/>
  <path d="M189.406,174.202l-1.698,3.406-5.095,1.703c2.087-1.81,6.476-4.796,6.793-5.108Z" fill="#63875f"/>
  <path d="M162.236,148.66h-1.698c-1.101-4.444.636-6.912,1.698-10.217.355,3.229-.511,7.163,0,10.217Z" fill="#668a60"/>
  <path d="M2.607,131.632c-.901-4.189-1.189-5.865-1.698-10.217h1.698v10.217Z" fill="#5b8755"/>
  <path d="M202.992,61.818c.019.587-.137,1.3,0,1.703l-1.698,1.703c-.327-.391-3.199-3.268-3.396-3.406-4.14-2.379-2.846-4.327,1.698-3.406,1.144,1.123,2.256,2.279,3.396,3.406Z" fill="#e5e9e4"/>
  <path d="M24.683,177.607c3.817-.958,3.328,1.594,5.046,4.281l-1.649.828c-2.152-1.211-2.183-2.151-3.396-3.406v-1.703Z" fill="#d4d6d3"/>
  <path d="M48.458,22.654c7.459-4.734,12.459-6.652,20.717-10.395,5.701-2.584,18.029-7.126,26.002-8.311,1.804-.268,13.01-1.308,13.686-1.19,2.115.368,2.46,5.055,5.236,6.019,2.843.987,6.956-.819,9.07,1.099-3.658,6.329-9.996,2.195-12.632,2.818-2.095.495-1.883,4.405-3.839,4.891-5.663,1.407-16.336.899-22.579,1.665q-2.253-2.36,0,0c-3.397,7.871-4.708,3.81-11.129,6.72-2.694,1.221-10.847,4.918-12.553,6.145-3.387,2.437-4.5,7.18-7.711,9.462-2.455,1.745-3.419-.22-4.269-.19.045-7.394-8.529-2.161-11.887-8.514.312-.283.475-2.336,1.698-3.406,3.024,2.129,5.288.994,6.793-3.406.58-.427,1.238-2.036,3.396-3.406Z" fill="#417c3a"/>
  <path d="M48.458,53.304c1.878,2.659-1.926,8.097-5.095,6.811l-1.698-3.406c2.593-3.482,4.465-4.353,6.793-6.811v3.406Z" fill="#ecefec"/>
  <path d="M184.312,41.385c-4.421-.996-8.982-4.923-11.887-8.514,1.941.952,4.047.837,6.702,2.617,2.693,1.805,3.455,4.172,5.185,5.897Z" fill="#4e7e47"/>
  <path d="M169.028,31.168c-3.518-1.406-7.672-1.54-10.189-5.108,3.712,1.031,8.201.134,10.189,5.108Z" fill="#4e7e47"/>
  <path d="M72.232,31.168c-2.12,1.45-3.781,5.629-8.491,5.108,2.248-1.632,3.744-5.54,8.491-5.108Z" fill="#ecefec"/>
  <path d="M189.406,56.71c.81.343,2.385,2.523,3.396,3.406,8.953,7.819,15.915,20.73,18.68,32.353l-3.396,1.703c-2.608-7.652-6.004-15.031-10.189-22.136l-4.078.907c-8.893-5.628-19.202-7.615-30.927-5.963l-2.354-3.458c-.315,1.513-.891,1.452-1.698,0-.958,3.248-2.437,3.252-3.396,0-.315,1.515-.891,1.453-1.698,0,.187,2.166-1.244,2.397-4.291.693l-25.356.024c-2.796,4.85-5.367,5.746-7.712,2.689-3.829,1.347-8.535-2.818-8.491-6.811-3.454-.241-12.972-4.054-9.754-8.359,2.757-3.689,80.619-.481,91.266,4.953Z" fill="#457c3e"/>
  <path d="M128.272,116.307c-1.676-8.574-1.385-15.046,8.102-10.795,2.29,1.026,2.439,3.835,3.858,4.681,8.681,5.176,4.414-1.175,11.771,8.635,3.316,4.421,7.227,4.53,5.139,11.102-.326,9.115-2.59,13.088-6.793,11.919-1.82-.238-3.498-.803-5.095-1.703l-14.927-16.469c-2.789-3.149-3.474-5.606-2.055-7.37Z" fill="#417d3a"/>
  <path d="M191.105,104.388c9.434,6.722-.794,4.244-5.863,5.206-5.983,1.136-13.127,3.616-18.779,4.771-3.307.676-7.79-2.212-11.019-3.166-2.392-1.535-4.61-3.159-1.698-5.108-6.146-2.884-5.013-5.154,3.396-6.811-1.11-.424-1.061-.998,0-1.703l1.886-1.566c8.548,6.444,19.241,9.236,32.078,8.377Z" fill="#407d38"/>
  <path d="M123.178,104.388c2.09,4.309,3.735,7.046,5.095,11.919,1.972,10.091,13.813,14.365,16.982,23.839-13.178-7.423-21.642-24.252-27.171-37.461-1.889-4.394.312-5.174,3.396-1.703,4.574-1.045,4.617-.2,1.698,3.406Z" fill="#4b7d45"/>
  <path d="M158.839,63.521c.514,8.849,1.08,17.931,1.698,27.244,3.352,6.073,9.087,6.933,15.872,7.5l27.936,2.101,2.043,4.02c.482-1.487,1.049-1.465,1.698,0-3.357,3.325-11.448.15-16.982,0-6.811-.184-16.393,1.069-22.57-.355-4.728-1.09-6.556-6.002-11.393-6.456-.408-8.892-.974-17.974-1.698-27.244-1.492-.941-1.266-5.19,0-6.811,1.131.016,2.266-.033,3.396,0Z" fill="#52814b"/>
  <path d="M131.668,95.874c-2.97,2.789-4.18,9.241-8.491,8.514-.492-1.015-1.202-2.577-1.698-3.406-2.848,1.037-4.463-3.647-1.698-5.108-2.352-4.877.296-5.888,4.076-1.99l2.717-1.416c-2.368-2.682-1.389-3.649,1.698-1.703,1.973,1.497,3.105,3.2,3.396,5.108Z" fill="#417d3a"/>
  <path d="M208.086,94.171c.764,4.001,3.389,6.86,0,10.217h-1.698c-2.466-2.498-3.76-6.356-3.88-11.575l-7.196-17.741,2.584-3.037c6.522,6.315,8.498,13.282,10.189,22.136Z" fill="#52804c"/>
  <path d="M141.858,100.982c3.149-1.29,5.171,2.516,5.095,5.108,1.483.483,1.461,1.052,0,1.703-6.967-3.669-10.026-5.985-15.284-11.919-1.144-1.291-3.959-1.581-3.396-5.108-1.483-.483-1.461-1.052,0-1.703,4.321-2.527,16.253,7.22,13.585,11.919Z" fill="#517f4e"/>
  <path d="M196.191,126.516c-8.126-.04-3.206-8.531-5.081-13.602,8.866.673,4.932,7.526,5.081,13.602Z" fill="#3d7e37"/>
  <path d="M153.745,106.09c.975.841,1.359,3.7,1.698,5.108-4.194-1.239-4.536-1.323-8.491-3.406v-1.703c-1.244-2.104-.456-2.91,1.698-1.703,2.55-3.852,4.189-2.568,5.095,1.703Z" fill="#bbc9b7"/>
  <path d="M158.839,129.929c-3.564,5.192-.863,16.047-8.491,13.622.136-.564-.222-1.474,0-1.703.194-.2,2.263.497,2.956-.365.381-.474,3.182-9.497,3.836-11.555h1.698Z" fill="#5a8455"/>
  <rect x="179.226" y="114.613" width="6.775" height="3.388" fill="#3f8134"/>
  <path d="M366.017,32.871c5.709-6.592,6.118,19.773,3.839,25.13-1.045,2.456-.434,2.545-3.839,2.114v-27.244Z" fill="#fefefe"/>
  <path d="M401.669,60.107c-6.842,1.255-2.123-8.534-1.668-11.898l1.668,11.898Z" fill="#fefefe"/>
  <rect x="269.221" y="109.496" width="3.396" height="27.244" fill="#fefefe"/>
  <path d="M337.139,60.107c-6.093,1.588-3.848-9.681-.832-11.902l.832,11.902Z" fill="#f3f6f3"/>
  <path d="M456.02,126.524l-.009,10.208h-3.379c.605-3.301-.881-9.217-.009-11.911,1.291-.134,2.833,1.617,3.396,1.703Z" fill="#fdfdfd"/>
  <rect x="452.632" y="109.505" width="3.379" height="6.794" fill="#fefefe"/>
  <path d="M272.608,60.107c-6.093,1.588-3.848-9.681-.832-11.902l.832,11.902Z" fill="#fefefe"/>
  <path d="M39.967,94.171c.924,4.917,3.813,8.557,8.035,11.359l-1.243,2.263c2.704,6.058,2.704,11.167,0,15.325,1.483.483,1.461,1.052,0,1.703-.399,2.196-1.64,4.765-3.723,7.708-2.875,22.064-8.223,5.674-9.862-6.005-.328-6.983-.909-14.006-1.743-21.071l1.743-16.39c.454-1.04,1.081-2.597,1.698-3.406-1.14-2.449,1.054-3.582,3.396-3.406,4.905-2.443,3.98,9.403,1.698,11.919Z" fill="#417d3a"/>
  <path d="M33.174,89.063c3.675,5.194-1.061,11.566.292,17.465.838,3.656,4.738,5.908,4.851,8.91.025.659-6.312,1.548-5.143,11.086-.482,1.487-1.049,1.465-1.698,0-2.192-12.485-3.511-25.523,1.698-37.461Z" fill="#497b42"/>
  <path d="M50.156,124.821c-1.383,2.715-4.188,4.505-5.461,7.296-2.246,4.923-.616,15.056-8.124,13.137-1.728-6.332-3.947-12.194-5.095-18.731h1.698l6.776,17.02c-.714-5.103,2.129-16.274,6.81-18.722.769-1.622,2.791-1.93,3.396,0Z" fill="#508049"/>
  <path d="M56.949,49.899c2.543,4.992-4.507,11.096-8.784,13.614l-3.103,3.414c-.495,1.1-1.057,2.409-1.698,3.406-5.525,2.597-4.983-1.517-1.698-5.108.661-1.244.575-3.433,1.698-5.108.716-1.067,4.421-6.057,5.095-6.811,1.816-2.032,6.126-4.882,8.491-6.811,2.215-.533,2.215.602,0,3.406Z" fill="#507e48"/>
  <path d="M19.589,152.065c1.037-11.801-1.319-24.011,1.709-35.767,6.025-1.399,2.61,6.628,3.386,10.225l-3.379-1.703c-.089,3.394.057,6.82-.017,10.217,3.097,3.089,3.532,7.408,0,10.217,1,2.184,1.458,4.81,0,6.811-.482,1.487-1.049,1.465-1.698,0Z" fill="#809276"/>
  <path d="M38.269,77.143c6.921-2.905,6.941.926,5.095,6.811-1.255,6.878-.8,8.311,1.698,15.325-.52.814-1.087.792-1.698,0-2.456.08-3.363-2.769-3.396-5.108-.234-4.414,1.399-8.571-1.698-11.919-2.515,2.195-4.066,1.656-3.396-1.703.487-.785,2.614-2.915,3.396-3.406Z" fill="#688f62"/>
  <path d="M22.985,157.174c.415,5.704.302,10.067,3.396,15.325.096,1.383-1.466,2.622-1.698,3.406.252-3.381-1.532-3.63-3.396-5.108-1.618-4.375-2.199-9.205-3.396-13.622.891-1.572,1.539-3.292,1.698-5.108h1.698c.659,1.528,1.225,3.231,1.698,5.108Z" fill="#e9ece8"/>
  <path d="M45.062,75.44c1.125,4.463-1.415,6.962-1.698,8.514.101-5.932,1.539-7.733-5.095-6.811,2.463-1.544,3.54-2.419,6.793-1.703Z" fill="#e6e9e5"/>
  <path d="M41.665,65.224c-.741,4.178-3.894,5.685,1.698,5.108-.429.668-1.114,1.177-1.698,1.703-1.197-.784-3.967,1.9-3.425-2.579.41-3.394,3.107-3.632,3.425-4.232Z" fill="#e6e9e5"/>
  <path d="M38.269,82.252c-.341,1.877-2.749,2.557-3.396,3.406-2.536-3.234-1.232-3.12,0-5.108.59,1.385,3.073,1.353,3.396,1.703Z" fill="#8ea38a"/>
  <path d="M21.287,135.038c4.482-.957,3.395,2.254,4.58,4.688,7.735,15.896,16.271,37.357,34.478,42.989.675.497,1.159,1.336,1.698,1.703-.265,6.548.35,7.665,1.844,3.349,10.476,4.052,20.616,8.611,30.421,13.679,5.058.627,10.218,1.066,15.284,1.703,5.895,1.346,11.556,1.346,16.982,0,2.763-.116,5.874.333,8.491,0,2.696.252,4.732.045,6.793-1.703,2.587-.568,9.499-2.528,11.887-3.406l6.793,1.703c-40.576,21.214-86.243,23.794-117.808-12.905-3.547-4.123-11.18-12.369-13.359-16.466-3.782-7.113.011-8.614-6.385-13.198-.497-3.925-1.063-7.898-1.698-11.919-.115-3.379-.074-6.835,0-10.217Z" fill="#417c3b"/>
  <path d="M70.534,133.335c.957-3.281,2.442-3.284,3.396,0,12.205,12.991-3.574,29.907-16.982,18.731-2.509-3.619-2.92-7.72-1.698-11.919,1.783-3.208,4.047-5.478,6.793-6.811,1.666-2.764,7.12-2.996,8.491,0Z" fill="#f6f8f6"/>
  <path d="M70.534,126.524c.267.028,3.524,1.284,5.095,1.703,2.743,1.204,3.309,2.339,1.698,3.406-1.455-.032-3.171,1.712-3.396,1.703-1.126-.044-2.268-.008-3.396,0-2.76-2.56-6.505-2.352-11.887,0-.482,1.487-1.049,1.465-1.698,0,.012-.205-1.914-2.196-1.698-3.406,1.211-.843,5.618-3.187,6.793-3.406,2.545-1.566,5.905-1.526,8.491,0Z" fill="#417e3a"/>
  <path d="M62.043,133.335c-.212,4.031-2.831,6.609-6.793,6.811v-1.703c.292-1.831,1.648-4.24,1.698-5.108h1.698c1.689-1.264,2.821-1.264,3.396,0Z" fill="#acbcaa"/>
  <path d="M55.251,140.146l1.698,11.919c-6.801-5.669-2.556-8.241-1.698-13.622v1.703Z" fill="#5b8555"/>
  <path d="M80.723,129.929c-.257.912.173,2.333,0,3.406-.739-.452-2.955-1.693-3.396-1.703l-1.698-3.406c1.75.466,3.552.624,5.095,1.703Z" fill="#618759"/>
  <path d="M45.062,26.06c4.732,7.259-6.78,11.615-6.793,3.406,3.26-2.853,5.65-2.564,6.793-3.406Z" fill="#407b34"/>
  <path d="M182.614,133.335c.802.294,5.082,7.518,5.031,9.378-.233,8.49-14.635,17.243-20.315,5.947-1.975-5.515-1.795-10.264,3.396-13.622.578-.285,1.182-1.609,1.698-1.703,3.138-1.576,7.05-1.613,10.189,0Z" fill="#f4f7f4"/>
  <path d="M170.726,135.038c-3.714,3.868-3.858,8.461-3.396,13.622-3.665-7.289-3.54-10.199,3.396-13.622Z" fill="#668a60"/>
  <path d="M182.614,128.227c-2.065-.389-8.01-.328-10.189,0,1.711-2.787,8.581-2.736,10.189,0Z" fill="#5d8857"/>
  <path d="M182.614,133.335c-.932-.342-8.699-.271-10.189,0,1.608-2.736,8.478-2.787,10.189,0Z" fill="#62875c"/>
  <path d="M72.232,119.713c-10.449.508-12.547.578-22.076,5.108-.769.366-2.687-.371-3.396,0v-1.703c-.737-2.914.862-4.803,4.798-5.667-3.551-13.717,21.886-8.909,20.675,2.261Z" fill="#467b40"/>
  <path d="M70.534,126.524c-2.137-.226-6.546-.362-8.491,0,1.118-2.685,7.373-2.685,8.491,0Z" fill="#618759"/>
  <path d="M55.251,106.09c13.019-2.573,28.31,3.528,40.756,8.514,2.292-1.016,3.121-.462,1.698,1.703l1.698,1.703c6.621,6.094,15.243,11.535,22.076,15.325,2.8-3.833,4.449-2.663,5.095,1.703l5.086,8.505c-6.775-.425-14.203.868-20.86-.423-6.023-1.168-10.093-15.589-13.919-14.884-5.892,1.085,2.162,10.264,5.959,9.401-.003,7.375-8.65,8.919-10.169,1.597-2.576-12.421-1.774-5.569-7.836-12.577-2.006-2.319-2.689-6.965-4.055-7.956-1.597-1.159-5.988.888-8.548,1.012-6.455-4.596-8.145-9.057-18.68-6.794,2.438,8.089,2.319,3.267,8.482,4.231l-15.275,5.968c-1.137-4.656-4.089-11.197,0-15.325-1.004-2.754,1.826-3.321,8.491-1.703Z" fill="#417d3a"/>
  <path d="M129.97,135.038c-.848-.276-2.326.188-3.396,0-2.154-.379-4.827-1.677-5.095-1.703-4.054-.266-3.932-3.562-3.396-6.811-1.969-5.334-1.969-9.307,0-11.919l11.887,20.433Z" fill="#5e865b"/>
  <path d="M85.818,194.635v1.703l8.491,5.108c-12.122-1.502-5.749-1.973-11.294-4.785-4.55-2.307-10.871-2.864-15.284-6.954-4.237-.418-3.718,11.469-10.782-.164l5.094-5.125c4.501,3.064,18.574,9.628,23.774,10.217Z" fill="#467d40"/>
  <path d="M126.574,203.149c-4.521,4.62-12.552.557-16.982,0,5.638-.166,11.35.237,16.982,0Z" fill="#467d40"/>
  <path d="M141.858,201.446l-3.426,5.092h-1.641s-1.726-3.389-1.726-3.389c.799-.102,4.912-1.29,6.793-1.703Z" fill="#467d40"/>
  <path d="M90.912,106.09c-13.374-6.301,6.497-7.098,13.208-6.301,8.953,1.064,9.383,2.199,12.265,11.409.606,1.202,1.123,2.108,1.698,3.406.505,1.14,3.467,8.722,3.49,9.215.07,1.481-2.827,1.446-3.49,2.705-.384,1.47-.956,1.423-1.698,0-2.27-1.215-2.836-2.35-1.698-3.406-2.486-1.666-4.75-3.369-6.793-5.108-5.543-.788-8.069-3.948-10.189-8.514-1.814,2.806-7.815.054-6.793-3.406Z" fill="#4b7e44"/>
  <path d="M68.836,63.521c.157-6.783,17.926-2.561,15.284,3.406-5.937-.209-4.689-1.053-5.099,4.174-.718,9.156.535,18.966-.005,28.188,1.676,1.68,29.443-2.552,33.972,1.694.146,2.147,4.54,6.549,3.396,10.217-.775-1.537-5.647-10.144-6.231-10.284-5.757-1.383-16.171,1.116-22.63.085l3.388,5.091c-1.114,3.407-5.184,1.605-5.095-1.703-4.372-1.944-8.779-4.088-13.46-5.249.772-9.751,3-21.792,1.713-31.471-.499-3.753-3.158-2.084-5.235-4.147Z" fill="#507e48"/>
  <path d="M119.781,95.874c1.241,1.635,1.066,4.054,1.698,5.108l-3.396,1.703c-.819-1.957-1.543-3.859-3.396-5.108.274-1.53-.185-3.47,0-5.108,2.994-3.633,6.848-1.197,5.095,3.406Z" fill="#487c43"/>
  <path d="M56.949,49.899c3.834-6.017,14.691-12.788,21.758-15.214,7.638-2.623,14.248-3.095,5.413,3.295-2.218.909-5.918,3.632-8.491,5.108-6.07,2.951-8.334,5.789-6.793,8.514,6.555.755,16.009,1.336,22.076,3.406,5.568-2.152,11.495,1.069,13.585,6.811,2.739-1.006,6.345,2.262,5.095,5.108,7.875,7.614,13.536,16.128,16.982,25.542-.268.949.374,3.121-.003,3.417-.709.557-4.186-1.659-5.791-1.362l-.999,1.351c-.863-1.136-4.224-2.216-5.095-3.406-1.538-2.1-3.526-4.96-5.095-6.811-6.066-6.693-12.214-12.957-20.378-17.028-1.402-.538-3.649-1.289-5.095-1.703-1.278-.365-2.382-2.608-5.822-1.816-1.81.417.169,4.265-2.652,3.509,1.035-7.299-1.617-4.721-6.81-5.099-2.926-.213-7.385-.357-10.189,0-4.341.108-8.303,1.243-11.887,3.406h-1.698c2.121-4.71,7.037-12.474,11.887-17.028Z" fill="#437d3d"/>
  <path d="M189.406,56.71c-2.782-1.177-15.851-3.094-19.556-3.378-15.371-1.177-50.398-3.37-64.566-1.793-2.538.283-5.239.355-5.878,3.448,4.742-.292,6.08,3.07,8.487,5.129,1.906,4.481.049,4.286-3.396,1.703-.738-.474-12.866-6.566-13.585-6.811,5.773,1.286.977-3.192,3.248-4.315,3.806-1.882,31.666-1.03,38.427-.863,4.01.099,7.728,1.666,11.747,1.843,14.559.643,32.138-2.777,45.072,5.038Z" fill="#e7ebe6"/>
  <path d="M101.101,27.763c5.712-1.658,9.674-1.091,11.887,1.703-9.205,2.952-19.966,4.864-28.869,8.514,2.585-3.508,2.169-4.404-2.193-3.056-6.334,1.957-20.11,10.405-24.978,14.976v-3.406c12.168-9.922,28.38-18.092,44.153-18.731Z" fill="#4f7d48"/>
  <path d="M140.159,27.763c.602,2.89-4.39,2.612-6.793,1.703-5.608-.361-11.37.334-16.982,0,.35-2.188,3.746-3.323,10.189-3.406,4.283-.245,9.408.716,13.585,1.703Z" fill="#97a493"/>
  <path d="M126.574,26.06c-1.088.062-8.65,2.392-10.189,3.406-1.125-.067-2.269.056-3.396,0-2.372-.118-6.63-1.916-11.887-1.703,7.079-3.829,17.394-.761,25.473-1.703Z" fill="#5d7c55"/>
  <path d="M75.629,43.088c-1.268,4.502-7.79,3.88-6.793,8.514-1.106-.127-2.281.102-3.393-.017,1.186-6.287,6.11-6.159,10.186-8.497Z" fill="#4f7d48"/>
  <path d="M140.159,27.763c2.613.617,7.307.976,6.784,3.388-3.667-.023-7.379.267-11.059-.033-2.732-.223-2.368-1.643-2.518-1.653l6.793-1.703Z" fill="#c3c5bd"/>
  <path d="M84.12,19.249c-2.777.341-17.432,4.701-18.672,3.397-.175-.184-.19-4.903-.016-5.088.702-.746,19.212-2.478,20.385-1.697-.052,1.254-1.161,2.146-1.697,3.389Z" fill="#43793d"/>
  <path d="M48.467,32.862c-2.111-2.097,10.36-15.136,11.87-7.629.67,3.333-11.331,8.164-11.87,7.629Z" fill="#427c3b"/>
  <polygon points="102.79 10.743 102.791 14.132 92.619 14.123 92.621 12.457 102.79 10.743" fill="#437b3c"/>
  <path d="M153.745,63.521c1.464,1.652,1.253,6.462,0,8.514-.804-1.908-2.033-6.805-2.667-6.929-2.153-.421-25.491-.423-26.976.005-2.205.635,1.465,8.388-6.051,4.396-.982-.522-1.22-2.257-1.666-2.58,5.013,1.763,4.393-3.171,7.534-3.537,8.485-.99,20.762.132,29.826.132Z" fill="#e7ebe6"/>
  <path d="M160.537,90.765c-3.833-7.688-.74-18.576-1.698-27.244.566.016,1.133-.019,1.698,0,.119,9.059-.166,18.188,0,27.244Z" fill="#819c7c"/>
  <path d="M155.443,70.332c.6,1.945.6,3.647,0,5.108-1.433-.794-1.232-2.3-1.698-3.406v-8.514c.566,0,1.132-.008,1.698,0v6.811Z" fill="#819c7c"/>
  <path d="M143.556,126.524c-1.747-3.22-2.346-4.613-1.681-8.513,8.033,2.309,11.67,1.958,10.164,11.912-3.403.808-4.368-.329-6.784-1.696,2.355-3.563,1.789-4.131-1.698-1.703Z" fill="#437b3d"/>
  <path d="M143.556,126.524c-1.066-13.433,15.103,2.746,1.698,1.703-.299-.169-1.542-1.415-1.698-1.703Z" fill="#477942"/>
  <path d="M157.141,97.577c-.076.606.166,1.316,0,1.703h-1.698v-28.947c2.41,6.776,2.633,19.818,1.698,27.244Z" fill="#6b8c65"/>
  <path d="M155.443,99.279h1.698c-1.106,2.578-7.243,2.762-3.396,6.811-.607-.524-3.962-.502-5.095-1.703-3.11.274-5.119-3.625-1.698-5.108,2.783-.267,5.69.184,8.491,0Z" fill="#52814b"/>
  <path d="M128.272,89.063v1.703c-.76.27-1.482.938-1.698,1.703-9.338,1.316-2.41-3.431-3.651-7.308-1.284-4.013-10.784-14.341-15.86-14.83l2.529-3.403c10.349,8.163,11.699,14.234,18.68,22.136Z" fill="#487c43"/>
  <path d="M146.952,99.279c-.131,1.62,1.687,4.096,1.698,5.108.01.9-.636,1.998-1.698,1.703-2.79-.722-3.619-3.689-5.095-5.108,1.57-.903,3.283-1.529,5.095-1.703Z" fill="#dbe2d9"/>
  <path d="M79.025,106.09c5.932-.301,13.927,1.997,16.982,6.811,1.498.42,1.461.992,0,1.703-12.271-1.843-28.626-8.768-40.756-8.514-5.61-.134-11.379-.312-11.887-6.811h1.698c10.195,6.677,22.832,4.054,33.963,6.811Z" fill="#4e7d48"/>
  <path d="M90.912,106.09c1.798.847,5.085,2.486,6.793,3.406,5.823,4.281,3.056,8.355-1.698,3.406-5.469-.573-12.332-5.659-16.982-6.811l6.793-1.703c1.762.783,3.778,1.082,5.095,1.703Z" fill="#ecefeb"/>
  <path d="M58.647,63.521c-2.646.337-8.24,3.512-11.887,3.406,1.696-4.886,7.622-3.328,11.887-3.406Z" fill="#507e48"/>
  <path d="M43.363,99.279c4.144,5.777,5.778,4.158,11.887,6.811-1.554.033-7.931,1.137-8.491,1.703-1.558-3.278-6.577-7.125-7.532-10.246-.622-2.033.763-2.935.74-3.376,2.128,1.08,2.347,3.646,3.396,5.108Z" fill="#467b40"/>
  <path d="M22.985,157.174c-2.639-1.891-1.386-2.491-1.698-5.108-.259-2.171.076-4.585,0-6.811,3.129,2.395,1.424,8.153,1.698,11.919Z" fill="#5b8755"/>
  <path d="M58.647,133.335c2.834-3.968,13.553-6.019,11.887,0-3.077.021-3.759-.66-8.491,0-1.084.151-2.289-.102-3.396,0Z" fill="#5b8555"/>
  <path d="M116.385,126.524c.479.19,1.182-.178,1.698,0,3.262,1.124,3.632,3.55,3.396,6.811-.946-.091-3.664,2.956-6.763.943-1.504-.977-3.368-5.554-5.929-7.796-4.593-4.021-6.276-1.131-9.384-8.471,6.046,1.814,11.938,4.993,16.982,8.514Z" fill="#447c3d"/>
  <path d="M107.894,118.01c1.483.483,1.461,1.052,0,1.703-2.989.715-6.385-.42-10.189-3.406-1.178-.515-1.498-.371-1.698-1.703-.083-.553.062-1.142,0-1.703,4.52.316,3.888.096,1.698-3.406,6.749,3.635,5.865,4.952,10.189,8.514Z" fill="#d6ded5"/>
  <path d="M107.894,119.713c2.386-.257,4.65.878,6.793,3.406.357,1.144,1.259,2.254,1.698,3.406-5.838-2.31-11.885-3.999-16.982-8.514-.216-.511-1.313-1.056-1.698-1.703,2.73,1.193,6.087,1.16,10.189,3.406Z" fill="#4e7c46"/>
  <path d="M109.592,85.657l-20.378-17.028c14.533,5.578,11.674,6.752,20.378,17.028Z" fill="#507e48"/>
  <path d="M107.894,118.01c2.65,2.183,4.609-1.901,6.793,5.108-3.373.458-4.9-2.369-6.793-3.406v-1.703Z" fill="#c2d0bf"/>
</svg>