<?xml version="1.0" encoding="UTF-8"?>
<svg id="Layer_1" data-name="Layer 1" xmlns="http://www.w3.org/2000/svg" viewBox="0 0 205.304 110.249">
  <path d="M59.991,12.732c1.138-.014,2.276-.028,3.449-.043q2.863.23,4.863,2.23c-.955.098-1.91.196-2.895.297-10.641,1.231-20.366,3.09-29.105,9.703,1.471,1.471,2.962,1.396,5,1.75,11.481,2.464,18.882,9.714,25.836,18.668,3.321,3.963,7.096,7.395,11.164,10.582h1c-1.65-1.65-3.3-3.3-5-5h5v-18h-18c-.33.66-.66,1.32-1,2-1.293-.956-2.584-1.915-3.875-2.875-.719-.534-1.439-1.067-2.18-1.617q-1.945-1.508-3.945-3.508c5.247-.05,10.494-.086,15.741-.11,1.782-.01,3.563-.024,5.345-.041,2.574-.025,5.148-.036,7.723-.044.785-.01,1.57-.021,2.378-.031,7.173-.001,14.962.411,20.466,5.531,5.46,6.869,7.539,14.344,7.598,22.945.021.739.041,1.477.062,2.238.037,5.247-.851,8.858-3.312,13.512-2.622,1.884-3.733,2-7,2-.248-1.093-.495-2.186-.75-3.312q-.968-3.589-2.875-5.625c-3.476-1.555-6.687-1.845-10.375-1.062-3.224,2.401-4.694,3.943-5.812,7.812-.062.722-.124,1.444-.188,2.188-4.794-.423-7.842-2.513-11-6-3.615-5.127-6.347-10.673-9.062-16.312-3.747-7.571-8.611-11.702-15.938-15.688l-3-1v17h-3v-18q-3.372.433-6.812.875c-1.265.162-2.529.325-3.832.492q-3.472.428-6.355,2.633c2.219-7.89,8.896-13.479,15.598-17.684,7.821-4.285,15.169-6.453,24.09-6.504Z" fill="#4e7948"/>
  <path d="M77.304,4.92c.78.351,1.56.701,2.363,1.062,11.102,5.522,21.254,15.741,26.637,26.938l-1,3c-.375-.519-.75-1.039-1.137-1.574-8.598-11.716-19.054-18.823-32.863-23.426-3.038-.227-6.08-.185-9.125-.188-.817-.012-1.635-.024-2.477-.037-12.978-.031-24.006,4.239-33.559,13.205-6.594,7.238-9.916,15.23-12.699,24.441q-1.141,3.578-2.758,6.977c-1.667,4.342-1.84,7.876-1.758,12.477.007.794.013,1.587.02,2.405.132,5.776,1.054,10.381,3.355,15.72.356,1.327.696,2.66,1,4C4.433,81.987.818,69.69.057,58.205c-.653-15.774,4.27-28.422,14.434-40.473C30.137.982,56.267-5.247,77.304,4.92Z" fill="#497644"/>
  <path d="M58.714,9.401c.834.006,1.668.013,2.527.019.855.005,1.71.01,2.592.015,7.338.201,13.054,1.86,19.471,5.485.915.504,1.83,1.008,2.773,1.527,6.463,3.724,11.819,7.642,16.477,13.535.686.857,1.372,1.714,2.078,2.598q1.672,2.34,2.672,5.34l-2,2c-.291-.543-.583-1.085-.883-1.645-2.733-4.769-4.726-7.485-10.117-9.355-4.831-1.017-9.545-1.131-14.461-1.098q-1.186.002-2.396.004c-2.506.006-5.012.018-7.518.031-1.707.005-3.414.01-5.121.014-4.168.011-8.336.028-12.504.049,2.64,1.98,5.28,3.96,8,6,.33-.33.66-.66,1-1,1.343-.086,2.69-.107,4.035-.098q1.093.004,2.207.008c.931.009,1.861.018,2.82.028q4.424.031,8.938.062v18q-1.98.495-4,1c2.31,1.65,4.62,3.3,7,5q-.99.495-2,1c-7.173-5.086-13.17-10.402-18.312-17.562-3.74-4.959-8.217-7.643-13.688-10.438-.661-.36-1.323-.719-2.004-1.09-2.233-1.018-4.345-1.541-6.746-2.035-.799-.168-1.598-.335-2.422-.508-.603-.121-1.207-.242-1.828-.367,7.866-9.135,19.553-10.927,31-12-5.61-.33-11.22-.66-17-1,3.604-3.604,4.639-3.418,9.41-3.519Z" fill="#f6f8f6"/>
  <path d="M11.304,57.92h2c.075.655.15,1.31.227,1.984,1.872,12.991,7.928,23.982,18.379,32.02,5.842,3.947,11.521,6.471,18.395,7.996.804.183,1.609.366,2.438.555,13.781,2.395,26.849-1.539,38.199-9.375,5.417-4.13,9.634-8.48,13.363-14.18q.495.99,1,2c-10.009,14.718-20.742,26.054-38.812,30.312-13.546,2.233-27.207,1.098-38.875-6.531-8.253-6.357-14.716-15.486-16.965-25.762-.354-3.075-.481-6.05-.473-9.145-.003-1.013-.005-2.026-.008-3.07.116-2.441.431-4.476,1.133-6.805Z" fill="#4d7948"/>
  <path d="M22.304,38.92c.049.699.098,1.397.148,2.117.075.91.15,1.82.227,2.758.07.905.139,1.81.211,2.742q.21,2.562,2.414,4.383c2.463.509,4.892.933,7.375,1.312,8.89,1.499,16.599,4.618,24.625,8.688-5.169-3.622-10.096-6.739-16-9v-1h17c.557,1.32,1.114,2.64,1.688,4,3.241,7.27,7.195,12.859,12.312,19h-27c-.66-2.64-1.32-5.28-2-8-1.939-2.614-2.837-2.946-6-4q-5.68-.463-10.875,1.5c-2.889,3.399-3.325,6.136-4.125,10.5h-3c-3.686-10.203-6.542-20.581-2-31,.33-.99.66-1.98,1-3q2-1,4-1Z" fill="#4b7846"/>
  <path d="M15.304,60.92c1.576,2.886,2.463,5.533,3.125,8.75.168.799.335,1.598.508,2.422q.182.905.367,1.828h3c-.103-.866-.206-1.733-.312-2.625.431-4.657,2.077-6.063,5.312-9.375,3.193-1.597,6.525-1.374,10-1,3.592,1.597,6.374,3.365,8,7-.206,4.783-1.35,8.174-4.312,11.938-2.558,1.963-4.699,2.946-7.688,4.062,7.933,6.676,16.086,12.166,26.766,12.098.889-.003,1.779-.006,2.695-.01.92-.008,1.841-.017,2.789-.025.936-.005,1.872-.009,2.836-.014,2.305-.012,4.609-.028,6.914-.049-2.525,2.525-4.138,2.557-7.625,3.125q-1.504.251-3.039.508c-.771.121-1.542.242-2.336.367,1.65.33,3.3.66,5,1v1c-15.21.728-28.109-2.664-39.75-12.688-6.086-5.767-10.59-12.321-13.25-20.312.029-2.765.535-5.257,1-8Z" fill="#e9ece8"/>
  <path d="M81.304,32.92c2.229-.081,4.458-.139,6.688-.188q1.862-.052,3.762-.105c3.853.318,5.581.857,8.551,3.293q1.582,2.488,2.812,5.312c.419.924.838,1.849,1.27,2.801.991,3.117,1.086,5.636.918,8.887-3.251-.052-6.5-.147-9.75-.25-.92-.014-1.841-.028-2.789-.043q-6.68-.242-10.086-2.27c-1.906-3.379-1.81-6.425-1.625-10.188.018-.697.036-1.395.055-2.113.047-1.713.119-3.425.195-5.137Z" fill="#f7f9f7"/>
  <path d="M48.304,25.92h31v1q-13.365.495-27,1c2.64,1.98,5.28,3.96,8,6l1-1c1.343-.086,2.69-.107,4.035-.098q1.093.004,2.207.008c.931.009,1.861.018,2.82.028q4.424.031,8.938.062v18l-4,1c2.31,1.65,4.62,3.3,7,5l-2,1c-7.173-5.086-13.17-10.402-18.312-17.562-3.247-4.325-6.82-6.703-11.551-9.246q-2.137-1.191-4.137-3.191h2v-2Z" fill="#f4f6f3"/>
  <path d="M50.304,11.92c.99.66,1.98,1.32,3,2-.666.147-1.333.294-2.02.445-10.521,2.56-20.154,6.861-26.98,15.555q-1.913,3.233-3,6l4-2c-.327.541-.655,1.083-.992,1.641-1.224,2.867-1.207,5.005-1.133,8.109q.027,1.477.055,2.984c.023.748.046,1.495.07,2.266h-1v-10l-4,2q-.753,2.433-1,5c-.33.99-.66,1.98-1,3-.228,2.733-.417,5.45-.562,8.188-.043.75-.086,1.499-.131,2.271-.106,1.847-.207,3.694-.307,5.541h-2v-7h-2c-.293,13.429,1.067,22.681,7,35h-4c-.819-1.726-1.63-3.456-2.438-5.188-.452-.963-.905-1.926-1.371-2.918-4.03-9.79-3.776-23.035.059-32.832.911-2.023,1.828-4.044,2.75-6.062.617-1.871,1.221-3.746,1.812-5.625,4.616-12.636,14.134-21.64,26.062-27.438,3.489-1.592,5.494-2.388,9.125-.938Z" fill="#eaede9"/>
  <path d="M36.108,63.443c3.728.809,5.157,2.321,7.195,5.477.693,2.841.699,5.159,0,8-1.989,2.984-3.385,4.603-6.938,5.477-3.923.282-5.734-.257-9.062-2.477-2.231-3.347-2.704-5.128-2.406-9.062,1.356-6.467,5.206-7.791,11.211-7.414Z" fill="#527b4c"/>
  <path d="M93.304,63.92c3.387,2.45,4.787,3.864,5.562,8-.728,3.883-1.502,5.462-4.562,8-3.122.648-5.875.621-9,0-2.44-1.774-2.837-2.978-3.305-5.906-.225-3.543-.04-5.542,1.867-8.594,3.429-2.11,5.48-2.125,9.438-1.5Z" fill="#517a4b"/>
  <path d="M41.304,33.92q6.804,2.268,10.188,4.875c.654.492,1.307.985,1.98,1.492,1.975,1.76,3.446,3.375,4.832,5.633v4h-17v-16Z" fill="#fafbfa"/>
  <path d="M178.304,51.92h4v17c-1.609.041-3.217.083-4.875.125-.905.023-1.81.046-2.742.07q-2.383-.195-4.383-2.195-.25-3,0-6,2-2,5.125-2.125c.949.041,1.897.082,2.875.125v-7Z" fill="#23661f"/>
  <path d="M26.304,82.92c6.545,1.824,11.475,4.371,17.031,8.281,7.372,4.268,14.115,5.147,22.531,4.906.913-.014,1.827-.027,2.768-.041,2.224-.035,4.447-.084,6.67-.146-4.361,4.361-11.575,3.306-17.41,3.317-10.689-.185-20.727-4.276-28.258-12.036-1.165-1.383-2.258-2.826-3.332-4.281Z" fill="#567e51"/>
  <path d="M37.304,66.92q1.875,1.125,3,3c.394,3.149.529,5.119-1.125,7.875-2.786,1.672-4.695,1.589-7.875,1.125-2.352-2.117-2.918-3.44-3.375-6.562q.375-2.438,1.5-4.25c2.747-1.739,4.693-1.585,7.875-1.188Z" fill="#e9ece8"/>
  <path d="M41.304,50.92h17c2.372,5.318,4.72,10.642,7,16h-3q-1.332-1.504-2.812-3.562c-4.822-5.855-11.401-8.425-18.188-11.438v-1Z" fill="#4c7847"/>
  <path d="M168.304,58.92v10c-1.609.062-3.217.124-4.875.188q-1.357.052-2.742.105-1.179-.145-2.383-.293c-2.148-3.221-2.561-4.26-2-8,3.386-4.232,7.207-2.879,12-2Z" fill="#20651d"/>
  <path d="M141.304,58.92v10c-1.609.062-3.217.124-4.875.188q-1.357.052-2.742.105-1.179-.145-2.383-.293c-2.148-3.221-2.561-4.26-2-8,3.386-4.232,7.207-2.879,12-2Z" fill="#20651d"/>
  <path d="M128.304,52.92c-.33.99-.66,1.98-1,3q-1.702.217-3.438.438-3.37.174-4.562,1.562-.25,2.458,0,5,1.898,2.35,5.125,2.125,1.423-.062,2.875-.125v4q-7.122.604-11-2.062-2-2.938-2.688-6.438c.734-3.738,1.729-5.429,4.82-7.699,3.442-1.476,6.289-.603,9.867.199Z" fill="#175e13"/>
  <path d="M119.304,79.92q-.562,1.938-2,4-3.625.75-7,1-.167,2.416,0,5,1.898,2.35,5.125,2.125,1.423-.062,2.875-.125v4q-7.145.606-11-2.125-2-2.875-2.562-5.875c.686-3.659,1.99-5.352,4.562-8,3.283-1.642,6.425-.519,10,0Z" fill="#165e12"/>
  <path d="M154.304,85.92c2.646-.027,5.292-.047,7.938-.062.755-.008,1.509-.017,2.287-.025,1.925-.009,3.851.036,5.775.088q1,1,1.098,3.066c-.012.824-.023,1.647-.035,2.496-.009.826-.018,1.653-.027,2.504-.012.638-.023,1.276-.035,1.934h-3c-.33-2.31-.66-4.62-1-7h-2c-.33,2.31-.66,4.62-1,7h-3c-.33-2.31-.66-4.62-1-7h-2c-.33,2.31-.66,4.62-1,7h-3v-10Z" fill="#10590c"/>
  <path d="M134.304,85.92c2.646-.027,5.292-.047,7.938-.062.755-.008,1.509-.017,2.287-.025,1.925-.009,3.851.036,5.775.088q1,1,1.098,3.066c-.012.824-.023,1.647-.035,2.496-.009.826-.018,1.653-.027,2.504-.012.638-.023,1.276-.035,1.934h-3c-.33-2.31-.66-4.62-1-7h-2c-.33,2.31-.66,4.62-1,7h-3c-.33-2.31-.66-4.62-1-7h-2c-.33,2.31-.66,4.62-1,7h-3v-10Z" fill="#10590c"/>
  <path d="M195.304,58.92v10q-6.836.195-9,0-2-2-2.312-5.5c.103-1.155.206-2.31.312-3.5,4.18-2.786,6.147-1.796,11-1Z" fill="#145c10"/>
  <path d="M124.179,85.654c.701.005,1.403.01,2.125.016.701-.005,1.402-.01,2.125-.016q1.875.266,3.875,2.266.312,3,0,6c-3.469,2.313-4.922,2.425-9,2q-1.875-1.188-3-3-.312-2.562,0-5,2-2,3.875-2.266Z" fill="#196015"/>
  <path d="M66.304,12.92l2,2c-.955.098-1.91.196-2.895.297-11.075,1.281-20.536,3.749-30.105,9.703q0-3,1-6c8.523-6.11,19.887-6.987,30-6Z" fill="#507a4b"/>
  <path d="M89.741,66.607q2.562.312,4.375,1.5c1.613,2.462,1.621,3.923,1.188,6.812q-1.125,1.875-3,3-3.062-.125-6-1-2-3-1.75-5.562c.995-3.234,1.775-4.313,5.188-4.75Z" fill="#e4e8e3"/>
  <path d="M40.304,33.92h1v16h17l1-2q.779,1.628,1.574,3.289c.704,1.446,1.408,2.891,2.113,4.336.34.713.679,1.426,1.029,2.16,2.282,4.65,4.815,8.363,8.283,12.215q-1.485.495-3,1c-5.935-6.665-8.754-11.015-11-20-5.94.33-11.88.66-18,1v-18Z" fill="#d1d9cf"/>
  <path d="M203.304,85.92q2,2,2,5h-7v2h6c-.33.99-.66,1.98-1,3q-5.429.362-7.875-1.188c-1.547-2.493-1.629-3.932-1.125-6.812,2.924-3.249,4.95-3.386,9-2Z" fill="#145d11"/>
  <path d="M174.304,85.92h3v7h4v-7h4q.25,6.625-2,10c-2.743.471-5.196.178-8,0q-1-1-1.098-3.066c.012-.824.023-1.647.035-2.496.009-.826.018-1.653.027-2.504.012-.638.023-1.276.035-1.934Z" fill="#1a6017"/>
  <path d="M48.304,25.92h31v1q-13.365.495-27,1c2.64,1.98,5.28,3.96,8,6l2-1v3l-3,1q-2.121-1.109-4.438-2.75c-.762-.531-1.524-1.062-2.309-1.609-2.099-1.528-4.183-3.074-6.254-4.641h2v-2Z" fill="#d0d8ce"/>
  <path d="M144.304,58.92q6.934-.098,9,0,1,1,1.098,3.066c-.012.824-.023,1.647-.035,2.496-.009.826-.018,1.653-.027,2.504-.012.638-.023,1.276-.035,1.934h-3c-.33-2.31-.66-4.62-1-7h-2c-.33,2.31-.66,4.62-1,7h-3v-10Z" fill="#0f590b"/>
  <path d="M38.304,93.92c1.176.454,2.351.908,3.562,1.375,6.616,2.237,13.531,2.852,20.438,3.625v1q2.475.495,5,1v1c-10.589.507-20.701-.575-30-6l1-2Z" fill="#dae0d9"/>
  <path d="M179.304,51.92h3v17c-1.98-.33-3.96-.66-6-1q.464-1.733.938-3.5c1.046-4.154,1.606-8.243,2.062-12.5Z" fill="#1a6016"/>
  <path d="M88.991,61.545c3.382.024,5.183.616,7.812,2.75q2.5,2.625,2.5,4.625l-3-1v-2c-3.554-1.185-6.27-1.266-10-1q-2,1-3,3-.727,3.108-1,6l-3-1q-.312-2.188,0-5,2.438-2.75,5-5,1-1,4.688-1.375Z" fill="#d9e0d8"/>
  <path d="M188.304,81.92h3v4h2v2h-2v5h2v3c-1.65-.33-3.3-.66-5-1v-7h-2v-2h2v-4Z" fill="#0b5607"/>
  <path d="M50.304,94.92c.725.163,1.449.326,2.196.494,2.637.476,4.994.621,7.667.604.886-.003,1.772-.006,2.686-.01.912-.008,1.824-.017,2.764-.025.931-.005,1.863-.009,2.822-.014,2.288-.012,4.577-.028,6.865-.049-4.036,4.036-10.173,3.183-15.562,3.188q-1.132.018-2.287.037c-3.863.01-6.882-.031-10.15-2.225h3v-2Z" fill="#738e6e"/>
  <path d="M73.304,94.92h5v3c-3.141,3.141-6.208,2.978-10.551,3.098-1.241-.012-2.483-.023-3.762-.035-1.254-.009-2.509-.018-3.801-.027-.953-.012-1.905-.023-2.887-.035v-1c5.28-.99,10.56-1.98,16-3v-2Z" fill="#f1f3f1"/>
  <path d="M10.304,73.92h1c.227,1.093.454,2.186.688,3.312,1.363,5.542,3.845,10.564,6.312,15.688h-4c-3.595-6.767-5.863-11.403-4-19Z" fill="#dee3dc"/>
  <path d="M46.304,52.92q2.57,1.27,5.125,2.812c.848.501,1.696,1.003,2.57,1.52,2.323,1.682,3.727,3.292,5.305,5.668-3.414-1.312-6.636-2.803-9.875-4.5-4.008-2.034-7.761-3.456-12.125-4.5,3.413-2.149,5.16-2.054,9-1Z" fill="#e0e5df"/>
  <path d="M104.304,76.92l1,2c-4.052,5.959-8.204,11.619-13,17q-1-3-.375-4.938,1.375-2.062,3.625-3.812c3.608-2.952,6.074-6.462,8.75-10.25Z" fill="#738f6e"/>
  <path d="M7.304,62.92h1c.037.906.075,1.812.113,2.746.349,6.472.808,12.321,3.168,18.387.744,1.933,1.253,3.851,1.719,5.867-3.679-3.285-5.752-6.664-8-11v-2h2v-14Z" fill="#6e8c69"/>
  <path d="M59.991,12.732q1.707-.021,3.449-.043,2.863.23,4.863,2.23c-5.61.66-11.22,1.32-17,2v-2c-.99-.33-1.98-.66-3-1,3.939-.924,7.645-1.164,11.688-1.188Z" fill="#728f6e"/>
  <path d="M86.304,63.92c4.332-.425,6.35-.47,9.938,2.125,2.372,3.306,2.525,4.899,2.062,8.875l-3-1c-.289-.804-.578-1.609-.875-2.438q-.883-2.789-3.625-3.688c-.825-.289-1.65-.578-2.5-.875-.66-.99-1.32-1.98-2-3Z" fill="#65875f"/>
  <path d="M165.304,58.92h3v10c-1.65-.33-3.3-.66-5-1q.875-7.875,2-9Z" fill="#105a0c"/>
  <path d="M138.304,58.92h3v10c-1.65-.33-3.3-.66-5-1q.875-7.875,2-9Z" fill="#105a0c"/>
  <path d="M42.304,63.92q1.812,1.688,3,4-.312,3.75-1,7h-1c-.423-2.018-.846-4.036-1.27-6.055q-.654-2.316-3.73-3.945c-2.324-.394-4.658-.735-7-1v-1q7.694-1.48,11,1Z" fill="#ced7cc"/>
  <path d="M41.304,65.92q1.25,2.562,2,5h-2c-.33.99-.66,1.98-1,3q-.309-1.176-.625-2.375-1.182-2.934-4.5-3.938c-.949-.227-1.898-.454-2.875-.688v-1q5.929-1.482,9,0Z" fill="#587e51"/>
  <path d="M60.304,58.92c2.724,2.353,3.814,4.625,5,8q-3,0-4.387-1.312c-1.204-1.562-2.409-3.125-3.613-4.688.99-.66,1.98-1.32,3-2Z" fill="#6b8b66"/>
  <path d="M201.304,84.92c.33,1.65.66,3.3,1,5h-4v-2c-2.511,1.255-2.871,2.501-4,5q-.25-2.312,0-5c2.48-2.48,3.445-3,7-3Z" fill="#548851"/>
  <path d="M99.304,22.92c2.639,3.185,5.145,6.29,7,10l-1,3c-.981-1.29-1.96-2.582-2.938-3.875-.545-.719-1.091-1.439-1.652-2.18q-1.41-1.945-2.41-3.945c.33-.99.66-1.98,1-3Z" fill="#7a9474"/>
  <path d="M51.304,14.92v2c-2.31.66-4.62,1.32-7,2v-2c-.66-.33-1.32-.66-2-1,2.957-1.478,5.742-1.06,9-1Z" fill="#5b8055"/>
  <path d="M193.304,85.92h1q.977,6.055,1,8c-.66.66-1.32,1.32-2,2v-3h-2v-5h2v-2Z" fill="#ceddcd"/>
  <path d="M28.304,20.92l2,1c-1.37,3.161-1.989,3.993-5,6-.66-.66-1.32-1.32-2-2l5-5Z" fill="#dce2da"/>
  <path d="M161.304,60.92l4,2c-.33.99-.66,1.98-1,3h-4c.33-1.65.66-3.3,1-5Z" fill="#dbe6db"/>
  <path d="M134.304,60.92l4,2c-.33.99-.66,1.98-1,3h-4c.33-1.65.66-3.3,1-5Z" fill="#dbe6db"/>
  <path d="M50.304,55.92c4.419,1.35,6.343,3.261,9,7-3.995-1.37-6.8-3.257-10-6l1-1Z" fill="#d1d9cf"/>
  <path d="M58.304,47.92c2.475,2.906,3.697,5.158,4,9-.66.66-1.32,1.32-2,2-1.423-3.823-2.24-6.913-2-11Z" fill="#d7ded5"/>
  <path d="M93.304,88.92h3c-.398,2.886-.79,3.822-3.062,5.75-.639.412-1.279.825-1.938,1.25q.875-5.875,2-7Z" fill="#648860"/>
  <path d="M27.304,61.92l2,1c-1.152,2.468-2.048,4.048-4,6-.66-.33-1.32-.66-2-1,1.152-2.468,2.048-4.048,4-6Z" fill="#dfe4dd"/>
  <path d="M187.304,61.92h5v4c-1.65-.33-3.3-.66-5-1v-3Z" fill="#e0e9df"/>
  <path d="M125.304,87.92c.99.33,1.98.66,3,1v4h-4c.33-1.65.66-3.3,1-5Z" fill="#e5ede5"/>
  <path d="M175.304,60.92c.99.33,1.98.66,3,1v4h-4c.33-1.65.66-3.3,1-5Z" fill="#e6eee6"/>
  <path d="M22.304,38.92v8c-.66-1.32-1.32-2.64-2-4h-3c.33-.99.66-1.98,1-3q2-1,4-1Z" fill="#799274"/>
  <path d="M50.304,94.92c1.65.33,3.3.66,5,1v3c-2.64-.33-5.28-.66-8-1,.99-.33,1.98-.66,3-1v-2Z" fill="#708f6a"/>
  <path d="M31.304,63.92q3.625-.188,7,0c-.33.66-.66,1.32-1,2-2.649.594-5.292.742-8,1,.66-.99,1.32-1.98,2-3Z" fill="#487643"/>
  <path d="M102.304,30.92c1.65,1.32,3.3,2.64,5,4-.33,1.65-.66,3.3-1,5-2.503-2.938-3.469-5.179-4-9Z" fill="#e4e8e2"/>
  <path d="M48.304,26.92c1.98.66,3.96,1.32,6,2q-.99,1.485-2,3c-1.98-.99-3.96-1.98-6-3l2-2Z" fill="#d5dcd3"/>
</svg>